<?xml version="1.0" encoding="UTF-8" standalone="no"?>
<!-- Created with Inkscape (http://www.inkscape.org/) -->

<svg
   inkscape:version="1.1.2 (0a00cf5339, 2022-02-04)"
   sodipodi:docname="favicon.svg"
   viewBox="0 0 64 64"
   height="975.52612"
   width="975.52612"
   xml:space="preserve"
   id="svg2"
   version="1.1"
   inkscape:export-filename="/home/kgd/work/code/vu/abrain/doc/src/_static/favicon-light.png"
   inkscape:export-xdpi="6.3000002"
   inkscape:export-ydpi="6.3000002"
   xmlns:inkscape="http://www.inkscape.org/namespaces/inkscape"
   xmlns:sodipodi="http://sodipodi.sourceforge.net/DTD/sodipodi-0.dtd"
   xmlns="http://www.w3.org/2000/svg"
   xmlns:svg="http://www.w3.org/2000/svg"><defs
     id="defs6"><rect
       x="281.48099"
       y="306.28137"
       width="166.97002"
       height="446.18762"
       id="rect44672" /><rect
       x="259.55893"
       y="325.69867"
       width="195.96455"
       height="404.10168"
       id="rect8964" /><clipPath
       clipPathUnits="userSpaceOnUse"
       id="clipPath1494"><rect
         style="display:inline;fill:#ffffff;stroke-width:7.5"
         id="rect1496"
         width="2630.1702"
         height="4930.4268"
         x="2993.7471"
         y="-5559.3003"
         transform="scale(1,-1)" /></clipPath></defs><sodipodi:namedview
     id="namedview4"
     pagecolor="#ffffff"
     bordercolor="#666666"
     borderopacity="1.0"
     inkscape:pageshadow="2"
     inkscape:pageopacity="0.0"
     inkscape:pagecheckerboard="0"
     showgrid="false"
     inkscape:zoom="0.5297552"
     inkscape:cx="496.45572"
     inkscape:cy="821.13399"
     inkscape:window-width="1872"
     inkscape:window-height="1175"
     inkscape:window-x="0"
     inkscape:window-y="0"
     inkscape:window-maximized="1"
     inkscape:current-layer="g8"
     fit-margin-top="150"
     fit-margin-left="0"
     fit-margin-right="0"
     fit-margin-bottom="150"
     width="978px"
     height="675.52612px"
     showguides="false"
     viewbox-width="64" /><g
     id="g8"
     inkscape:groupmode="layer"
     inkscape:label="ink_ext_XXXXXX"
     transform="matrix(1.33333,0,0,-1.33333,-0.93859137,751.90735)"
     style="display:inline"><g
       id="g10"
       transform="matrix(0.00653901,0,0,0.00653901,5.0287613,519.68773)"
       clip-path="url(#clipPath1494)"
       style="display:inline;stroke:#000000;stroke-opacity:1"
       inkscape:label="brain"><path
         id="path388"
         style="fill:#000000;fill-opacity:1;fill-rule:nonzero;stroke:none;stroke-opacity:1"
         d="m 3381.8418,651.7793 c -246.9158,12.66508 -387.3341,280.41658 -382.5418,504.0722 -44.2082,338.3462 11.5387,682.477 -48.5857,1019.4617 -133.6613,204.966 45.315,440.9507 -14.9823,661.2841 -7.8145,266.6853 129.2114,521.4644 74.7092,789.9578 15.5233,248.6496 50.5378,496.889 8.0456,745.4817 -16.0985,259.483 31.1373,516.9121 -15.953,775.2429 -32.3718,199.4142 117.8343,379.1267 318.1333,381.4157 438.3709,23.0768 834.8498,-260.9423 1084.5629,-600.9597 174.8326,-265.9713 286.1593,-566.9944 365.5724,-873.4498 107.5912,-305.3108 230.8093,-635.3423 133.9717,-960.702 -42.7645,-189.2716 94.1914,-353.7428 81.0083,-538.4955 -9.6854,-237.261 -82.0895,-481.146 -218.8776,-673.9797 C 4521.1897,1683.7369 4437.7942,1359.1534 4211.0934,1144.869 4022.5668,953.54888 3821.0259,742.74558 3553.8221,670.55189 3497.6367,656.89887 3439.6809,650.07852 3381.8418,651.7793 Z m -42.623,253.4707 c -91.2449,178.4435 268.218,406.9782 347.4958,205.0553 -6.1172,-64.1581 -195.1156,-197.38981 -9.3179,-152.73985 195.585,50.94445 317.542,460.82555 52.9274,476.55625 -101.863,-40.4753 -330.51,7.4436 -225.9636,154.8036 -185.3228,6.3713 -239.1377,-345.0647 -2.5162,-224.0218 189.518,-19.6722 94.2642,-229.9551 -62.8225,-188.1515 -142.254,-23.2434 -284.7491,-172.9345 -99.803,-271.502 z m 769.2558,464.2383 c 108.5462,16.7668 218.9103,362.201 56.725,165.0607 -29.9448,-50.3854 -48.7145,-107.0894 -56.725,-165.0607 z m -525.418,238.7558 c 167.3727,25.6252 389.9495,-15.8384 497.3032,146.2873 -1.5153,166.5245 -6.84,340.6908 183.753,416.2432 148.7301,91.9197 31.1579,231.079 -105.8149,153.6323 -171.9797,3.4793 -315.9413,-181.0221 -164.4977,-318.2177 147.8548,-171.1363 -184.5356,-324.8748 -258.1304,-128.0317 -165.7998,36.2791 -350.1146,-227.6787 -484.8509,-40.7831 133.544,166.4876 413.8963,199.8261 460.5161,434.925 46.9978,271.1383 -295.899,168.2628 -415.1355,185.7026 -52.2006,259.9769 322.0331,269.8772 478.8946,190.0345 147.723,57.0415 76.9488,358.6811 308.5393,276.3776 182.4979,94.9602 154.1223,435.301 419.9567,419.9981 82.6358,-15.8327 268.4119,-47.8891 84.7314,16.7151 -237.1113,80.8219 -417.0869,-115.758 -620.4441,-180.0519 -218.6761,39.6344 -348.212,-177.7671 -160.4379,-320.0786 127.127,-218.6843 -234.0843,-148.61 -289.6919,-14.4177 -225.6099,177.6116 -363.4812,-213.7282 -350.7677,-390.7575 -47.0549,-264.4381 147.0568,-279.8597 324.4172,-188.0776 81.6482,-205.7392 -355.7986,-236.5042 -300.3278,-483.7636 26.0054,-281.9069 448.3679,141.7949 420.9382,-149.541 -8.2967,-10.1933 -18.9702,-17.8064 -28.9509,-26.1953 z m 833.9571,278.5079 c 199.124,52.8163 369.4663,402.5439 245.6922,517.5201 -125.0521,-99.1757 -78.2536,-359.4335 -282.0624,-353.5306 -31.2246,-51.7186 -26.8756,-138.1254 36.3702,-163.9895 z m -304.0469,583.4941 c 170.5139,-53.521 346.459,383.7647 445.5552,102.5711 136.648,5.0792 175.8447,188.5276 39.4104,200.2393 -45.9658,114.239 214.817,393.3766 1.3589,375.402 -143.0978,-23.6799 -52.9551,-278.4802 -79.0909,-202.0837 -91.676,-213.8874 -407.6769,-224.3439 -486.6855,-438.2209 6.9129,-35.1001 50.3626,-41.7638 79.4519,-37.9078 z m -939.9023,509.1074 c 106.0668,246.0082 432.8757,198.5116 596.1807,374.7846 161.4325,218.53 -75.9558,465.2421 -10.018,700.4376 74.6019,237.4328 -87.8972,424.7099 -201.596,612.8605 -92.4787,220.145 -434.2385,163.0838 -349.5761,-99.7983 -30.9175,-132.6925 268.7983,-218.1479 133.6769,-70.1603 -117.1097,181.7338 86.8751,176.4064 166.9674,54.7102 206.0347,-152.7498 186.4317,-413.0084 169.1406,-637.0546 -7.0985,-192.3858 0.2245,-532.6601 -273.8665,-515.0324 -231.4919,13.827 -209.0479,-264.1691 -230.909,-420.7473 z m 1536.2929,428.2559 c 55.3698,161.9772 -167.7488,420.8286 -75.2764,106.6947 15.7317,-41.024 41.0704,-78.8137 75.2764,-106.6947 z m -610.9922,119.3554 c 122.1562,82.6581 441.7437,160.9701 356.8953,350.6241 -218.7518,-190.8012 -171.667,210.8057 -181.1352,332.4213 11.3613,182.7323 -188.2579,249.1371 -263.8228,343.4461 183.8552,152.3779 -130.022,173.4342 -115.7231,344.5227 -5.9771,189.3357 -159.2792,456.8109 -348.965,242.5803 -139.931,-154.4756 -231.2535,-22.5017 -231.8761,127.7783 -115.4771,-89.9967 -33.0563,-406.9708 144.1621,-321.9482 112.5299,-74.7103 268.4939,-35.3015 172.7176,117.2441 67.6112,190.3545 304.6794,-103.8736 198.5075,-222.0346 -60.4846,-228.3533 142.4638,-403.2079 254.8159,-526.0441 -9.389,-84.2926 -207.0678,-345.2202 -77.4513,-316.1559 91.7377,188.7564 232.2061,24.0174 164.6715,-120.5494 21.1424,-106.9131 -180.6932,-236.5875 -134.4158,-212.7755 17.9508,-47.5141 55.586,-87.1554 61.6194,-139.1092 z m -804.7929,89.1895 c 239.2067,99.3767 132.6893,404.5307 161.057,603.5974 -86.5762,207.1783 -214.4915,-30.3505 -170.5498,-152.9479 31.3418,-124.3808 -112.6197,-381.2276 9.4928,-450.6495 z m 1199.6289,566.1074 c 85.8543,88.9535 -143.7564,297.2866 -42.3187,94.2483 12.0569,-32.282 26.0854,-63.8443 42.3187,-94.2483 z m -336.0723,676.1856 c 64,122.2884 -209.9065,67.0628 -24.4896,6.947 8.1632,-2.3157 16.3264,-4.6313 24.4896,-6.947 z" /></g><path
       id="path1840"
       style="display:inline;fill:#000000;fill-opacity:1;stroke:none;stroke-width:0.490427;stroke-miterlimit:4;stroke-dasharray:none;stroke-opacity:1"
       d="M 24.306902,555.6088 A 15.693628,15.723904 0 0 1 8.6132716,539.8849 15.693628,15.723904 0 0 1 24.306902,524.161 a 15.693628,15.723904 0 0 1 0.30997,0.0188 v 31.42279 a 15.693628,15.723904 0 0 1 -0.30997,0.006 z"
       inkscape:label="neuron" /><path
       style="fill:none;fill-rule:evenodd;stroke:#000000;stroke-width:3.55745;stroke-linecap:butt;stroke-linejoin:miter;stroke-miterlimit:4;stroke-dasharray:none;stroke-opacity:1"
       d="M 0.05036104,556.12641 12.819035,549.28502"
       id="path2433"
       inkscape:connector-type="polyline"
       inkscape:connector-curvature="0"
       inkscape:export-filename="/home/kgd/work/code/vu/abrain/doc/src/_static/path2433.png"
       inkscape:export-xdpi="6.3000002"
       inkscape:export-ydpi="6.3000002" /><path
       style="display:inline;fill:none;fill-rule:evenodd;stroke:#000000;stroke-width:4.01901;stroke-linecap:butt;stroke-linejoin:miter;stroke-miterlimit:4;stroke-dasharray:none;stroke-opacity:1"
       d="m -3.9214626,539.391 12.6845859,0.15901"
       id="path2435"
       inkscape:connector-type="polyline"
       inkscape:connector-curvature="0"
       inkscape:label="dendrite2" /><path
       style="display:inline;fill:none;fill-rule:evenodd;stroke:#000000;stroke-width:3.58918;stroke-linecap:butt;stroke-linejoin:miter;stroke-miterlimit:4;stroke-dasharray:none;stroke-opacity:1"
       d="M 13.023331,529.68879 0.07352942,522.61393"
       id="path2437"
       inkscape:connector-type="polyline"
       inkscape:connector-curvature="0"
       inkscape:label="dendrite1" /><path
       id="path3153"
       style="fill:#000000;fill-opacity:1;fill-rule:nonzero;stroke:none;stroke-width:0.0490426;stroke-opacity:1"
       inkscape:label="axon"
       d="m 42.691406,537.4043 c -0.835663,-0.0707 -0.600418,0.95761 -0.832494,1.42669 -0.554618,0.41543 -1.225579,0.76131 -1.904566,0.9131 -0.810244,0.0388 -1.65063,-0.23059 -2.428898,0.1228 -0.79895,0.26854 -1.580474,1.03164 -1.430078,1.93639 0.295489,0.84584 1.36856,0.69933 1.677906,-0.0267 0.850189,-0.53905 1.86679,0.0506 2.778946,-0.19381 0.938565,0.0391 1.485214,-1.07031 2.382915,-0.98635 0.799798,0.36573 1.657768,0.40954 2.480471,0.67392 0.578243,0.26772 1.473498,0.38893 1.13898,1.19974 0.314377,0.7708 1.467751,0.12803 1.513225,-0.54484 0.215683,-0.6758 -0.196933,-1.54428 -0.970541,-1.55697 -0.546143,-0.52362 0.650559,-0.0405 0.91237,-0.0932 0.835302,0.30207 1.968011,-0.98961 0.905521,-1.42753 -0.739816,-0.0325 -1.438306,0.036 -2.140853,-0.32454 -0.85107,-0.006 -1.468198,0.98701 -2.372777,0.75695 -0.66884,-0.10454 -1.059095,-0.71569 -1.053127,-1.35278 -0.113686,-0.2666 -0.356023,-0.50175 -0.657,-0.52286 z" /><path
       id="path3153-6"
       style="fill:#000000;fill-opacity:1;fill-rule:nonzero;stroke:none;stroke-width:0.0348576;stroke-opacity:1"
       d="m 42.380859,538.61328 c -0.987189,0.10401 -1.241188,1.39732 -0.779552,2.13141 0.585822,0.85522 1.808411,1.26312 2.008068,2.3764 0.422396,0.4622 -0.838957,0.66603 -0.237772,1.21499 0.610553,0.96081 1.667684,-0.33886 2.29192,0.43038 0.455259,0.74364 0.882336,1.52703 1.716781,1.91283 0.407991,0.55652 1.356223,0.83201 1.346672,-0.1519 0.129536,-0.50329 -0.819744,-0.94575 0.02844,-1.10779 0.836852,-0.51701 -0.03106,-2.30913 -0.828802,-1.44856 -0.799166,0.0121 -1.640789,-0.725 -2.390862,-1.10728 -0.691691,-0.68966 -0.859712,-1.8716 -1.801798,-2.35159 -0.719905,-0.30124 -0.805871,-1.07239 -1.000499,-1.70375 -0.07878,-0.11456 -0.209728,-0.19946 -0.352592,-0.19514 z" /><path
       id="path3153-3"
       style="fill:#000000;fill-opacity:1;fill-rule:nonzero;stroke:none;stroke-width:0.0422596;stroke-opacity:1"
       inkscape:label="axon3"
       d="m 45.875,529.82617 c -0.834429,-0.18729 -1.109059,1.00178 -0.618439,1.39365 -0.378071,1.15482 -0.906674,2.25371 -1.441526,3.33889 -0.194927,1.01677 -0.933126,1.69998 -1.804045,2.14575 -0.895767,0.79901 -1.278928,1.98683 -2.055912,2.88148 -1.019819,-0.1154 -1.521166,1.71677 -0.37211,1.85784 1.071213,0.15 1.804199,-0.86236 2.265993,-1.68427 0.490316,-0.8188 1.015211,-1.79328 2.008461,-2.06029 0.611375,0.6633 1.527368,0.0196 1.154614,-0.80898 -0.282116,-0.96955 0.191837,-1.93315 0.790151,-2.67392 0.513902,-0.57861 1.340585,-0.85435 1.536994,-1.6807 0.239157,-0.57063 0.440869,-1.21735 0.975272,-1.5864 0.129704,-0.92529 -1.182465,-0.85497 -1.573431,-0.37766 -0.112995,-0.39927 -0.43059,-0.72419 -0.866022,-0.74539 z" /><text
       xml:space="preserve"
       transform="matrix(0.1212922,0,0,-0.25189768,-23.802204,630.31107)"
       id="text44670"
       style="font-style:normal;font-weight:normal;font-size:96px;line-height:1.25;font-family:sans-serif;white-space:pre;shape-inside:url(#rect44672);fill:#ffffff;fill-opacity:1;stroke:#000000;stroke-opacity:1"
       inkscape:label="Sigma"
       inkscape:export-filename="/home/kgd/work/code/vu/abrain/doc/src/_static/favicon-light.png"
       inkscape:export-xdpi="6.2800002"
       inkscape:export-ydpi="6.2800002"><tspan
         x="281.48047"
         y="392.75367"
         id="tspan58720">	Σ</tspan></text></g></svg>
