<?xml version="1.0" encoding="UTF-8" standalone="no"?>
<!-- Created with Inkscape (http://www.inkscape.org/) -->

<svg
   inkscape:version="1.1.2 (0a00cf5339, 2022-02-04)"
   sodipodi:docname="logo.svg"
   viewBox="0 0 978.28936 975.52612"
   height="975.52612"
   width="978.28937"
   xml:space="preserve"
   id="svg2"
   version="1.1"
   inkscape:export-filename="/home/kgd/work/code/vu/abrain/doc/src/_static/favicon-light.png"
   inkscape:export-xdpi="25.120001"
   inkscape:export-ydpi="25.120001"
   xmlns:inkscape="http://www.inkscape.org/namespaces/inkscape"
   xmlns:sodipodi="http://sodipodi.sourceforge.net/DTD/sodipodi-0.dtd"
   xmlns="http://www.w3.org/2000/svg"
   xmlns:svg="http://www.w3.org/2000/svg"><defs
     id="defs6"><rect
       x="281.48099"
       y="306.28137"
       width="166.97002"
       height="446.18762"
       id="rect44672" /><rect
       x="259.55893"
       y="325.69867"
       width="195.96455"
       height="404.10168"
       id="rect8964" /><clipPath
       clipPathUnits="userSpaceOnUse"
       id="clipPath1494"><rect
         style="display:inline;fill:#ffffff;stroke-width:7.5"
         id="rect1496"
         width="2630.1702"
         height="4930.4268"
         x="2993.7471"
         y="-5559.3003"
         transform="scale(1,-1)" /></clipPath></defs><sodipodi:namedview
     id="namedview4"
     pagecolor="#ffffff"
     bordercolor="#666666"
     borderopacity="1.0"
     inkscape:pageshadow="2"
     inkscape:pageopacity="0.0"
     inkscape:pagecheckerboard="0"
     showgrid="false"
     inkscape:zoom="0.79092606"
     inkscape:cx="400.796"
     inkscape:cy="423.55413"
     inkscape:window-width="1872"
     inkscape:window-height="1175"
     inkscape:window-x="0"
     inkscape:window-y="0"
     inkscape:window-maximized="1"
     inkscape:current-layer="g8"
     fit-margin-top="150"
     fit-margin-left="0"
     fit-margin-right="0"
     fit-margin-bottom="150"
     width="978px"
     height="675.52612px"
     showguides="false" /><g
     id="g8"
     inkscape:groupmode="layer"
     inkscape:label="ink_ext_XXXXXX"
     transform="matrix(1.33333,0,0,-1.33333,-0.93859137,751.90735)"><g
       id="g10"
       transform="matrix(0.1,0,0,0.1,65.059929,-105.44098)"
       clip-path="url(#clipPath1494)"
       style="display:inline;stroke:#000000;stroke-opacity:1"
       inkscape:label="brain"><path
         d="m 4000.29,1201.5 c -2.3,0.25 -4.74,-1.27 -6.7,-1.37 1.68,0 3.99,0.53 6.7,1.37 M 3472,1042.68 l -0.36,-1.14 c 1.06,0.12 2.11,0.5 3.19,0.98 0.43,0.3 0.49,0.41 0.79,0.62 l -5.17,1.3 h -0.22 c 0.83,0 -2.21,-1.33 1.77,-1.76 m 1284.25,1753.71 c -14.15,18.96 -29.69,39.9 -40.53,63.56 -21.33,-27.78 -40.47,-56.1 -51.41,-79.77 -6.29,-13.28 -9.77,-25.01 -10.87,-33.57 -0.41,-4.24 -0.61,-7.7 -0.25,-10 0.2,-2.39 0.3,-3.66 0.3,-3.66 0.28,0.08 -2.74,4.38 -4.71,13.44 -1.93,9 -2.53,22.42 -0.91,38.19 3.08,31.7 14.4,72.39 28.01,111.85 13.63,39.52 29.6,78.09 42.17,106.77 5.91,13.01 10.82,23.88 14.53,32.04 48.92,198 70.9,650.61 -103.29,864.98 -0.79,-50.88 -14.45,-109.56 -41.25,-174.26 -0.56,-1.34 -1.17,-2.73 -1.8,-4.13 -19.45,-41.69 -76.2,-117.56 -65.82,-162.37 10.39,-44.79 91.65,-78.43 128.11,-106.43 17.41,-13.33 31.61,-26.19 42.14,-37.81 9.49,-10.08 15.83,-19.7 18.35,-27.52 1.35,-3.91 0.63,-7.78 -0.76,-9.35 -1.3,-1.61 -2.35,-1.86 -2.24,-1.94 0,0 2.62,4.25 -2.47,8.21 -4.42,4.26 -13.77,8.14 -25.27,12.84 -23.65,8.75 -58.84,18.55 -100.75,29.21 -41.89,10.45 -90.87,22.09 -141.87,30.67 -25.37,4.24 -51.56,7.36 -75.21,7.94 -11.65,0.2 -22.77,-0.98 -30.04,-2.52 -2.76,-0.58 -4.49,-1.23 -5.41,-1.69 l -6.76,-6.38 c -27.59,-23.92 -53.5,-40.3 -80.39,-55.71 -26.62,-15.21 -53.39,-28.19 -79.84,-39.51 -52.8,-22.67 -104.31,-38.42 -150.14,-47.04 -7.71,-1.47 -15.22,-2.64 -22.62,-3.69 45.96,-31.88 94.33,-100.22 91.82,-128.28 -48.38,32.22 -149.55,69.82 -227.35,72.58 -17.22,-15.11 -34.64,-29.15 -51.04,-41.46 -28.02,-21.17 -55.45,-40.79 -83.3,-58.15 -35.37,-22.21 -71.2,-40.98 -106.92,-54.06 -23.23,-29.61 -38.55,-63.48 -28.46,-96.33 13.08,-7.33 26.41,-15.07 40,-23.54 14.82,-8.89 29.5,-18.8 44.5,-28.88 14.57,-10.53 29.48,-21.27 43.46,-33.04 14.24,-11.75 27.67,-24.15 40.27,-37.6 12.61,-12.99 24.02,-27.87 33.97,-42.6 9.54,-15.85 17.94,-31.26 22.32,-48.9 2.4,-8.19 3.36,-17.59 3.89,-25.58 -0.58,-8.78 -0.33,-16.46 -3.08,-23.82 -1.13,-3.51 -2.23,-6.87 -3.28,-10.12 -1.56,-3.06 -3.25,-5.86 -4.93,-8.43 -3.03,-5.34 -6.67,-9.26 -10.2,-12.47 -6.19,-6.99 -13.11,-9.83 -17.05,-12.19 -4.12,-2.19 -6.38,-3.1 -6.38,-3.1 0,0 0.51,2.42 1.46,7 1.08,4.28 2.48,10.6 2.59,17.99 0.39,3.56 0.36,7.43 -0.76,11.37 -0.45,1.94 -0.78,3.84 -1.06,5.71 -0.78,1.8 -1.6,3.66 -2.44,5.56 -2.96,7.23 -8.48,13.77 -15.59,20.65 -6.51,6.89 -16.67,14.12 -26.6,21.71 -10.99,7.55 -22.47,15.49 -35.53,23.79 -12.66,8.35 -26.72,16.78 -40.44,26.13 -14.29,8.94 -28.32,18.87 -42.97,28.7 -14.2,10.29 -28.81,20.56 -42.66,31.77 -14.04,10.9 -27.57,22.62 -40.32,34.62 -12.81,12.12 -24.71,24.57 -35.45,37.59 -10.7,12.81 -20.13,26.26 -27.76,39.74 -1.15,2.01 -1.89,4 -2.94,6 -10.35,6.49 -21.04,12.19 -33.43,15.54 -5.87,-2.23 -12.02,-4.67 -18.67,-7.66 -20.05,-9.22 -42.64,-23.44 -66.32,-42.2 -23.43,-19.21 -47.66,-43.41 -71.18,-72.14 -23.62,-28.55 -46.47,-61.86 -67.04,-98.6 -15.29,-27.54 -29.49,-57.11 -41.03,-88.05 l 5.27,-7.21 -10.64,-27.76 c -6.85,-17.84 -13.43,-38.78 -19.61,-61.71 -2.94,-23.24 -5.34,-47.54 -7.51,-71.97 -3.84,-49.49 -6.63,-100.19 -6.79,-150.5 -0.7,-50.31 1.16,-100.47 6.19,-148.04 2.85,-23.64 6.34,-46.82 11.45,-68.14 5.15,-21.15 12.2,-40.85 20.31,-54.83 15.5,-26.33 30.35,-21.57 56.85,-17.02 4.59,1.27 9.14,2.55 13.71,3.79 36.71,11.71 71.73,32.09 104.42,52.25 32.71,20.33 63.92,40.21 94.11,55.17 29.87,15.4 60.47,23.67 85.73,23.28 25.56,-0.42 43.47,-9.51 54.05,-16 5.55,-3.05 9.1,-6.49 11.65,-8.37 2.51,-2.01 3.8,-3.03 3.8,-3.03 0,0 -1.58,0.54 -4.58,1.6 -3.05,1.02 -7.39,2.83 -13.32,4.15 -11.51,3.31 -29.21,5.12 -49.42,0.46 -20.36,-5.06 -42.37,-18.17 -66.08,-36.87 -23.76,-18.92 -48.72,-43.85 -78.74,-70.31 -30.07,-26.31 -64.95,-55.58 -111.65,-77.62 -5.91,-2.65 -11.79,-5.19 -18.11,-7.74 -6.41,-2.26 -14.5,-5.11 -19.86,-6.59 l -8.32,-2.36 -2.11,-0.64 -0.52,-0.12 -2.05,-0.46 -1.53,-0.31 -6.33,-1.2 c -8.54,-1.45 -17.77,-2.1 -27.34,-1.53 -4.36,0.24 -8.8,0.84 -13.21,1.63 9.52,-75.07 -0.19,-149.94 -9.16,-218.34 -12.42,-94.79 -23.16,-177.86 14.05,-243.83 6.03,3.87 11.99,7.44 17.96,11.05 37.4,21.86 73.81,37.62 109.13,52.73 70.74,29.27 137.15,51.87 193.87,71.33 56.71,19.52 104,35.1 135.34,49.3 15.61,7.1 27.51,13.5 33.88,19.79 6.82,5.96 6.98,11.63 6.98,11.63 -0.26,0.26 2.39,-5.49 -2.39,-14.94 -4.53,-9.13 -14,-20.68 -27.6,-32.87 -27.12,-24.61 -69.47,-54.08 -121.59,-85.46 -26.01,-15.78 -54.5,-32.07 -84.54,-48.93 -29.87,-16.62 -61.41,-34.13 -94,-52.28 -32.11,-17.84 -65.23,-36.79 -94.75,-56.67 -14.16,-9.65 -28.76,-21.33 -34,-28 -9.57,-11.77 -16.06,-23.86 -18.37,-32.34 -2.23,-8.75 -1.57,-12.82 1.51,-20.36 3.08,-7.53 11.24,-17.63 22.27,-27.15 21.98,-19.44 54.41,-36.92 84.15,-50.87 22.23,-10.61 55.2,-14.78 86.26,-15.96 31.48,-1.09 62.76,0.51 91.83,2.52 29.09,2.24 56.18,4.94 80.3,7.69 24.33,2.74 45.54,5.12 63.04,7.1 35.12,4.37 55.76,6.21 55.76,6.21 0,0 -16.99,-11.81 -48.66,-28.71 -31.57,-17.28 -77.84,-39.47 -137.42,-58.58 -29.9,-9.26 -63.02,-18.07 -100.31,-22.78 -18.66,-2.31 -38.37,-3.91 -59.42,-3.07 -0.3,0 -0.62,0.04 -0.9,0.07 -17.87,-34.35 -31.22,-83.19 -17.42,-145.64 -32.59,53.11 -48.1,116.5 -53.89,165.95 -21.42,39.95 -46.64,38.39 -71.95,40.15 -50.81,-159.68 23.81,-222.06 26.55,-224.25 l 23.48,-17.09 -1.1,-29.02 c -3.6,-93.108 47.8,-167.018 98.01,-189.311 27.54,-12.207 94.88,-35.168 125.52,15.382 l 4.93,8.079 c -4.71,7.789 -9.33,16.089 -13.69,25.351 -12.86,27.609 -23.99,61.25 -30.3,99.348 -2.88,19.172 -5.02,39.271 -3.45,61.481 0.75,11.18 2.25,22.84 6.81,36.02 2.35,6.59 5.44,13.63 10.73,21.09 5.19,7.33 13.29,15.42 24.35,20.43 5.49,2.5 11.31,4.03 17.15,4.77 3.19,0.35 7.7,0.4 9.86,0.33 l 1.81,-0.08 0.88,-0.08 2.91,-0.22 13.31,-0.79 c 8.92,-0.89 17.49,-1.28 25.86,-1.25 8.43,-0.59 16.76,-0.26 25.01,0.08 8.16,-0.08 16.56,0.71 24.75,1.42 8.16,0.43 16.48,1.12 24.66,2.27 8.23,1.04 16.22,1.22 24.23,2.46 16.03,2.12 31.33,3.1 45.7,4.66 28.65,2.47 53.43,3.29 70.94,3.21 17.43,0.08 27.76,-1.2 27.76,-1.2 0,0 -8.15,-6.44 -23.03,-15.55 -14.78,-9.36 -36.23,-21.47 -63.32,-33.61 -13.35,-6.29 -28.59,-11.66 -44.61,-17.49 -16.47,-5.06 -33.76,-10.46 -53.21,-13.62 -18.99,-3.61 -40,-5.08 -60.85,-4.29 -10.53,0.38 -20.96,1.73 -31.04,3.33 l -9.85,2.5 c -0.46,-0.65 -0.91,-1.38 -1.34,-2.47 -2.25,-4.71 -4.32,-11.92 -5.81,-19.49 -2.87,-15.38 -3.93,-32.63 -4.04,-49.329 -0.3,-33.692 2.81,-66.16 7.12,-93.52 1.03,-6.699 2.21,-13.051 3.47,-19.109 l 14.01,1.219 c 261.12,23.39 392.9,169.719 442.53,262.009 -13.5,11.76 -26.35,28.28 -32.6,56.32 -0.73,0.05 -1.2,0.1 -1.2,0.1 0,0 0.28,0.82 0.72,2.09 -0.25,1.17 -0.56,2.24 -0.79,3.47 l 2.15,0.35 c 1.22,3.07 2.57,7.56 4.61,12.24 0.96,2.5 2.02,5.27 3.2,8.3 0.67,3.48 1.75,6.71 2.6,10.3 1.84,7.13 4.3,13.8 5.6,22.4 1.7,8.09 3.85,15.9 5.18,25.22 0.73,4.48 1.91,8.8 2.87,13.23 0.51,4.86 1.67,9.47 2.49,14.25 2.29,9.19 3.62,19.47 6.01,29.31 2.39,9.89 4.17,20.47 7.07,30.55 2.06,10.53 5.27,20.68 7.86,31.09 2.81,10.36 6.04,20.54 9.11,30.54 3.29,10 6.58,19.75 10.06,29.11 1.22,3.09 2.37,5.78 3.51,8.78 -1.6,11.5 -3.71,21.82 -6.9,30.62 -1.75,-0.31 -3.48,-0.59 -5.05,-0.84 -18.33,-2.67 -36.43,-4.22 -54.15,-5.42 -35.48,-2.06 -69.67,-1.76 -102.28,-0.13 -65.19,3.15 -124.05,10.74 -173.57,15.45 -49.45,4.91 -89.73,6.46 -115.12,-1.22 -12.41,-4.05 -21.39,-10.41 -26.13,-16.54 -4.88,-6.09 -6.84,-10.29 -6.84,-10.29 0,0 -0.05,1.12 -0.18,3.26 -0.13,2.21 -0.15,5.52 0.69,9.83 1.25,8.54 6.75,22.06 19.8,33.87 12.69,12.16 31.1,22.31 52.46,30.26 21.42,7.94 45.8,14.01 72.17,18.72 52.74,9.49 113.32,13.69 176.07,17.57 31.36,2.11 63.28,3.86 94.78,6.84 15.79,1.29 31.35,3.33 46.69,5.44 8.24,1.17 13.87,1.92 22.9,3.6 6.46,1.22 12.37,2.49 18.58,4.47 24.84,6.95 49.35,20.69 72.41,37.44 22.85,17.07 44.17,37.35 62.67,59.22 37.31,43.64 64.94,92.34 79.81,136.43 0.49,1.44 0.84,2.79 1.3,4.19 -31.59,61.76 -124.53,101.34 -139.9,218.42 74.18,-76.82 140.12,-57.79 200.41,-17.18 52.2,35.18 33.34,69.86 34.38,107.98 2.55,94.54 107.32,103.75 175.72,225.9 15.99,28.59 38.92,119.05 65.84,140.45 26.72,21.25 31.05,18.91 67.03,28.92 57,15.85 119,0.65 174.11,-15.43 12.3,-3.59 23.68,-7.04 34.21,-10.1 7.61,60.57 9.64,100.21 9.72,102.05 3.44,90.01 -31.66,137.06 -65.66,182.56 m 49.15,-333.88 c -11.66,-0.54 -23.62,-0.76 -35.83,-0.82 -72.96,-0.46 -132.06,35.94 -187.82,-17.2 -18.7,-17.51 -40.63,-75.22 -58.3,-97.13 -15.45,-18.69 -30.11,-38.72 -44.81,-58.76 -16.97,-69.55 16.92,-57.24 65.94,-88.33 7.63,-4.82 14.96,-8.89 21.2,-14.33 3.15,-2.5 6.18,-4.96 9.13,-7.33 2.62,-2.75 5.19,-5.39 7.63,-7.94 5.04,-4.79 8.69,-10.1 11.71,-14.79 3.28,-4.42 5.68,-8.52 7.04,-12.28 3.09,-7.08 4.85,-11.08 4.85,-11.08 -46.35,32.63 -94.45,58.97 -157.88,29.49 -16.91,-4.02 -32.04,-9.25 -43.29,-14.48 -5.09,-2 -8.64,-4.58 -12.17,-6.39 -3.08,-1.9 -2.62,-2.94 -3.79,-3.71 -5.55,-4.3 -8.75,-6.76 -8.75,-6.76 l -0.26,0.52 c -9.04,-18.24 -17.96,-36 -26.72,-52.33 -21.91,-41.12 -43.49,-74.34 -60.36,-96.38 -0.31,-0.41 -0.56,-0.76 -0.89,-1.17 -15.25,-20.48 -15.28,-65.45 -10.05,-89.8 10.52,-48.97 15.97,-54.44 68.17,-57.62 28.58,-1.7 57.38,-1.57 85.7,3.01 57.86,9.33 109.08,36.95 151.12,77.44 95.87,92.4 144.63,230.12 177.78,355.91 4.23,15.95 36.88,192.09 40.65,192.26 m -462.02,-725.68 -3.13,4.43 c -7.33,-1.86 -14.94,-3.23 -23.08,-3.46 -13.69,-0.43 -28.22,1.22 -41.97,6.08 -10.56,3.49 -20.59,8.65 -29.24,14.89 -10.17,-39.8 -27.61,-81.05 -52.91,-120.62 -19.33,-29.65 -42.8,-58.74 -72.01,-84.16 -20.62,-18.35 -44.56,-34.64 -71.21,-47.46 -1.65,-13.49 -3.97,-30.27 -7.25,-47.92 5.04,-17.16 8.91,-36.7 9.75,-57.59 0.89,-12.12 0.33,-24.64 -0.64,-37.38 -0.86,-12.68 -3.56,-25.58 -6.08,-38.34 -3.56,-12.8 -6.92,-25.41 -12.17,-37.66 -5.31,-12.19 -10.63,-23.95 -17.97,-34.91 -3.61,-5.42 -6.78,-10.87 -10.58,-15.83 -4.2,-4.93 -8.09,-9.8 -12.32,-14.23 -7.76,-9.03 -17.38,-16.53 -26.16,-22.85 -3.12,-2.44 -6.51,-4.27 -9.89,-6.16 l 45.62,7.23 c -0.58,0.46 -1.22,0.56 -1.85,0.61 27.2,8.39 106.11,62.02 244.28,232.88 158.56,196.05 100.49,299.6 98.81,302.45 m -19.26,1723.84 h 0.05 c 0.04,0 0.1,0.05 0.17,0.1 -0.02,-0.03 -0.19,-0.07 -0.22,-0.1 m 1.65,1.14 -0.35,-0.34 c 1.06,0.76 2.49,2.31 0.35,0.34 m -1198.1,-611.08 c 28.48,38.34 59.38,71.29 90.86,98.29 27.98,24.28 56.71,43.08 84,57.67 83.3,81.13 91.32,64.05 63.13,150.89 -5.48,7.7 -10.25,15.02 -13.77,21.15 -5.24,8.52 -8.28,15.6 -10.57,20.19 -2.24,4.62 -3.4,7 -3.4,7 0,0 1.65,-2.1 4.81,-6.11 3.19,-4.03 7.71,-10.1 14.32,-17.38 8.78,-9.99 21.45,-23.11 38.27,-35.51 10.82,-7.24 21.21,-13.51 31.44,-18.78 30.2,-13.85 69.77,-17.48 112.11,-4.08 45.11,13.86 92.3,43.69 140.06,81.31 23.9,18.78 48.26,39.86 72.54,62.34 6.18,5.74 12.38,11.53 18.68,17.36 5.88,5.71 11.82,11.46 17.8,17.26 11.73,11.81 23.09,24.15 34.03,36.95 43.64,51.06 78.35,112.1 85.11,177.68 3.23,32.73 0.3,66.47 -9.03,100.24 -4.85,17.38 -10.48,32.48 -18.33,50.96 -8.03,18.76 -16.07,37.63 -24.2,56.57 -16.39,38.61 -33.59,79.49 -45.19,124.74 -11.62,45.1 -17.42,94.37 -13.27,142.77 1.96,24.17 6.29,47.95 12.11,70.98 5.97,23.05 14.52,48.52 22.01,66.24 l 6.49,16.19 5.51,12.94 c 3.4,8.63 6.7,17.22 9.46,25.83 5.62,17.15 9.73,34.21 11.83,50.71 3.85,33.07 0.23,62.81 -13.69,88.84 -6.92,13.07 -16.17,25.48 -27.53,37.28 -5.63,5.94 -11.76,11.76 -18.32,17.49 -7.01,6.11 -12.55,10.47 -21.93,17.95 -21.76,17.92 -35.33,36.29 -47.96,55.14 -12.38,18.83 -22.04,38.28 -30.38,57.97 0,0 -40.6,100.48 -42.29,113.33 -2.22,11.26 -6.32,26.56 -17.41,43.27 -10.94,16.92 -30.94,35.11 -58.52,55.39 -13.61,10.23 -28.91,21.37 -44.19,34.75 -15.24,13.43 -30.43,29.79 -41.7,49.21 -5.41,9.78 -10.29,19.89 -13.43,30.39 l -3.92,12.87 c -1.21,3.27 -2.08,6.54 -3.7,10.04 -5.71,14.02 -14.15,25.68 -24.6,33.64 -10.42,7.99 -23.35,11.37 -36.37,10.31 -13.04,-0.94 -25.75,-6.31 -36.35,-13.3 -21.46,-14.09 -34.97,-33.18 -43.36,-46.45 -8.3,-13.56 -12.02,-22.07 -12.02,-22.07 0,0 1.97,8.99 7.61,24.25 5.95,15 15.36,37.16 36.56,58.14 10.55,10.3 24.49,20.27 42.4,25.39 17.68,5.31 39.85,4.55 59.22,-4.79 19.41,-9.13 35.62,-24.73 47.28,-42.22 3.05,-4.22 5.8,-9.24 8.64,-14.1 l 6.51,-12.33 c 3.33,-6.57 7.77,-12.34 12.29,-17.91 18.58,-21.86 47.92,-35.79 79.02,-51.4 21.18,-10.44 43.26,-22.79 63.22,-37.07 6.14,18.56 13.93,35.58 23.27,52.26 l 7.42,12.45 6.91,10 6.43,9.17 c 1.61,2.6 3.35,5.15 4.68,7.78 11.72,20.7 12.73,43.39 6.57,67.44 -6.19,23.9 -18.6,47.12 -31.16,68.6 -25.84,42.87 -52.1,81.49 -65.11,118.52 -6.61,18.36 -9.24,36.54 -7.3,51.95 1.75,15.46 7.42,27.47 12.92,36 5.5,8.64 11.14,14.03 14.71,17.73 3.79,3.44 5.76,5.22 5.76,5.22 0,0 -1.55,-2.14 -4.56,-6.28 -2.79,-4.24 -6.9,-10.6 -10.58,-19.47 -3.69,-8.81 -6.62,-20.31 -5.7,-33.59 0.87,-13.25 5.67,-27.93 13.83,-43.27 16.27,-31.09 46.91,-62.72 79.17,-104.2 16,-20.96 33.36,-44.3 45.94,-75.01 6.11,-15.31 10.93,-32.8 11.46,-51.82 0.63,-18.95 -2.97,-39.06 -10.57,-57.25 -1.78,-4.63 -4,-8.97 -6.15,-13.4 l -6.18,-11.33 -5.8,-10.68 -4.16,-9.19 c -5.46,-12.61 -10.35,-26.72 -13.5,-40.94 -6.11,-28.7 -7.28,-59.44 -2.45,-90.67 4.84,-31.15 14.85,-62.87 29.86,-92.66 7.47,-14.85 16.18,-29.29 25.89,-42.34 9.44,-12.91 20.83,-25.36 30.2,-31.86 6.29,-4.48 16.75,-11.87 25.09,-18.45 8.81,-6.88 17.65,-14.3 26.28,-22.43 17.15,-16.37 33.33,-35.82 46.33,-58.21 6.02,-10.41 11.19,-21.47 15.57,-32.87 19.54,9.34 41.46,18.65 64.44,26.21 17.3,5.71 34.99,10.5 52.17,13.19 17.05,2.78 33.97,3.34 48.22,-0.18 7.15,-2.01 13.41,-5.07 18,-9.02 4.45,-4.09 7.14,-8.5 8.54,-12.25 2.9,-7.49 2.19,-12 2.6,-11.9 -0.33,-0.19 -1.25,4.43 -5.96,9.92 -2.26,2.76 -5.62,5.4 -9.74,7.21 -4.28,1.67 -9.4,2.24 -14.99,1.94 -22.95,-2.14 -52.02,-19.52 -78.08,-39.25 -26.29,-19.85 -50.28,-42.96 -66.34,-60.65 -1.22,-1.34 -2.06,-2.39 -3.18,-3.67 0.43,-12.91 -0.05,-25.71 -1.33,-38.2 -2.49,-24.74 -7.73,-48.42 -14.58,-71.08 -3.36,-11.34 -7.28,-22.37 -11.32,-33.28 l -11.5,-29.17 c -8.59,-21.03 -12.77,-35.73 -17.4,-53.36 -4.3,-17.76 -7.44,-35.57 -8.7,-53.37 -2.87,-35.57 0.54,-71.13 9.51,-107.27 9.18,-36.13 23.18,-73.06 38.32,-111.01 7.79,-19.36 15.47,-38.64 23.16,-57.85 7.73,-19.51 15.5,-43.16 20.61,-65.16 10.51,-44.96 13.51,-92.73 6.03,-138.29 -7.35,-45.56 -23.85,-88.1 -45.61,-124.68 -6.89,-11.6 -14.24,-22.51 -21.85,-33.11 15.64,7.01 33.06,15.72 51.79,25.74 37.73,20.22 81.1,45.43 126.55,73.25 22.44,13.85 45.35,28.45 68.03,43.38 32.95,21.71 52.62,38.9 89.39,54.65 10.05,4.31 25.32,8.11 40.82,11.91 1.78,35.88 -29.19,63.37 -77.31,72.13 50.77,24.67 112.79,-12.79 163.38,-33.11 20.25,13.48 42.24,28.96 63.34,45.48 16.19,25.8 31.45,53.31 44.59,80.98 23.48,49.64 90.85,210.64 15.08,276.94 -29.08,4.98 -58.3,12.72 -85.63,24.06 -4.6,-26.22 -10.68,-54.22 -18.6,-82.1 -12.91,-45.98 -30.89,-91 -51.3,-121 -10.21,-14.99 -21.13,-25.77 -29.76,-31.61 -8.62,-5.92 -14.47,-7.12 -14.27,-7.42 -0.2,0.26 5.04,3.18 11.15,10.87 6.13,7.62 12.69,19.89 17.58,35.66 9.85,31.68 13.67,76.35 12.65,120.77 -0.84,44.39 -6.08,88.79 -12.27,119.99 -0.91,4.85 -1.93,9.24 -2.93,13.36 -33.51,35.67 -58.8,74.36 -40.48,122.22 28.63,75.24 30.1,91.29 -22.52,216.42 -15.71,21.24 -45.12,61.15 -46.12,63.18 -3.1,5.64 -12.64,15.61 -19.72,19.78 -28.5,17.15 -78.27,35.21 -127.47,55 -49.27,19.79 -99.6,43.05 -130.58,70.88 -7.78,6.69 -14.22,13.75 -19.26,20.34 -5.07,6.59 -8.98,12.7 -11.36,18.1 -5.25,10.51 -6.05,17.2 -6.41,17.03 0.32,0.19 2.86,-6.06 10.31,-14.47 3.47,-4.33 8.56,-8.95 14.58,-13.58 6.07,-4.65 13.26,-9.31 21.74,-13.37 33.52,-17.08 83.67,-26.02 134.78,-32.26 46.11,-5.87 92.62,-9.88 133.65,-19.25 0.1,23.36 2.6,44.08 4.88,62.01 7.03,54.95 8.1,63.37 -62.45,82.68 -269.85,73.86 -287.02,162.85 -238.55,352.92 3.43,13.4 4.91,26.68 5.32,38.97 -21.19,17.01 -42.53,34.74 -63.63,52.32 -68.86,57.41 -171.95,155.92 -211.45,152.89 -28.82,-2.22 -65.7,0.66 -93.26,-9.92 -45.93,-17.67 -112.08,-106.95 -144.39,-144.57 -16.11,-18.74 -30,-38.82 -34.82,-59.34 -2.89,-10.26 -3.06,-20.54 -1.55,-30.44 0.95,-4.92 1.77,-9.87 3.76,-14.39 1.49,-4.72 3.45,-9.18 5.86,-13.23 4.07,-8.61 9.95,-15.47 14.6,-21.97 5.4,-5.85 9.89,-11.49 14.18,-15.43 8.68,-8.01 13.64,-12.6 13.64,-12.6 0,0 -5.99,3.25 -16.46,8.89 -5.33,2.8 -11.13,7.2 -18.24,11.84 -6.48,5.4 -14.53,11.04 -21.54,19.38 -3.87,3.85 -7.43,8.31 -10.66,13.44 -3.71,4.83 -6.42,10.54 -9.24,16.54 -5.27,12.07 -8.82,26.45 -8.65,41.25 -0.62,30.14 10.7,59.6 23.47,85.73 13.07,26.18 27.88,50.42 42.09,71.51 55.25,82.04 -124.85,94.26 -153.42,91.11 -47.98,-5.28 -85.42,-39.47 -104.09,-67.76 -17.78,-26.89 -21.25,-64.57 -9.55,-103.36 12.79,-42.3 26.72,-113.91 34.39,-194.77 5.29,5.34 10.45,10.67 16.03,15.57 7.14,6.07 14.15,12.06 20.92,17.83 13.22,11.61 28.25,20.53 39.27,28.58 5.66,4.13 11.49,6.39 16.29,9.2 4.9,2.61 9.19,4.87 12.72,6.74 7.05,3.74 11.06,5.89 11.06,5.89 0,0 -2.96,-3.47 -8.15,-9.54 -2.61,-3.03 -5.76,-6.71 -9.36,-10.94 -3.41,-4.34 -8.13,-8.71 -11.69,-14.45 -3.66,-5.51 -7.61,-11.49 -11.82,-17.81 -4.15,-6.18 -8.43,-12.51 -12.15,-20.08 -3.84,-7.22 -7.85,-14.67 -11.89,-22.26 -3.88,-7.58 -7.03,-15.87 -10.58,-23.73 -7.28,-15.52 -12.21,-32.42 -17.65,-47.3 -4.31,-15.66 -8.88,-29.67 -11.35,-42.22 -3,-12.33 -4.95,-22.57 -6,-29.73 -0.22,-1.21 -0.39,-2.15 -0.57,-3.17 -1.98,-54.86 -8.41,-108.37 -21.58,-155 -21.12,-74.54 -2.52,-257.83 18.75,-358.7 1.47,0.7 2.93,1.41 4.41,2.12 10.75,4.34 21.64,8.45 32.15,11.18 21.15,6.12 41.41,9.91 60.12,13.92 18.75,3.84 35.74,7.85 50.29,11.97 7.46,1.85 13.62,4.3 19.53,6.16 5.9,1.78 10.95,3.92 15.03,5.73 8.28,3.5 13.02,5.5 13.02,5.5 0,0 -3.8,-3.44 -10.47,-9.45 -3.31,-3.04 -7.31,-6.68 -12.47,-10.43 -5.04,-3.77 -10.78,-8.62 -17.27,-12.83 -12.81,-8.98 -28.43,-18.86 -45.06,-28.69 -16.55,-10.02 -34.28,-20.22 -49.8,-31.26 -8.06,-5.33 -14.83,-11.25 -21.3,-16.85 -2.83,-2.89 -5.67,-5.78 -8.46,-8.6 -2.38,-2.93 -4.23,-5.9 -6.3,-8.6 -0.26,-0.29 -0.34,-0.6 -0.55,-0.89 11.05,-22.29 4.24,-43.46 -4.05,-60.12 0.25,-1.06 0.4,-1.75 0.4,-1.75 l -1.29,-0.08 c -1.74,-3.36 -3.44,-6.58 -5.06,-9.51 -24.83,-45.02 -42.07,-85.96 -1.54,-131.02 37.11,-41.26 53.21,-80.47 49.19,-119.89 -5.59,-54.76 -48.65,-86.5 -74.38,-105.49 -3.66,-2.7 -8.28,-6.1 -10.99,-8.17 -8.71,-30.65 -5.43,-135.02 -4.33,-170.3 0.37,-11.61 0.68,-21.6 0.79,-29.15 1.06,-65.18 21.25,-98.92 31.54,-107.73 0,0 195.64,62.6 195.8,63.08 0.73,1.79 3.63,1.84 6.67,1.71 l 10.96,3.52 c 3.21,4.59 6.32,0.97 11.85,14.25 2.51,2.54 3.79,7.24 5.01,12.29 0.41,9.71 1.26,19.18 2.6,28.53 6.31,43.6 19.54,85.3 35.92,127.09 16.66,41.64 37.08,82.89 61.02,123.28 1.26,2.26 3.12,5.11 3.98,6.85 l 2.45,4.5 c 1.73,2.96 2.59,6.07 4.02,9.03 1.86,6.2 3.67,12.33 4.03,19.18 1.13,13.43 -0.44,29.41 -5.32,46.92 -4.96,17.5 -11.97,36.27 -20.4,55.85 -8.45,19.53 -17.92,39.82 -26.86,61.87 -8.94,21.98 -18.15,45.51 -22.51,74.28 -2.24,14.19 -3.1,30.24 -0.26,47.22 0.44,3.8 1.65,9.01 3.21,14.2 l 2.42,7.53 c 0.8,2.28 1.21,2.73 1.81,4.17 l 1.7,3.64 2.05,4.62 0.67,1.35 2.78,5.31 c 13.77,28.39 15.35,58.02 5.61,88.85 -9.46,30.7 -27.9,60.08 -46.98,86.05 -19.09,26.25 -39.23,49.67 -57.32,70.47 -18.03,21 -33.7,39.98 -45.77,56.53 -11.89,16.67 -19.67,31.71 -21.62,43.03 -1.99,11.57 2.02,16.93 1.63,16.81 0,0 -0.19,-1.44 -0.01,-4.18 0.07,-2.61 1.15,-6.53 3.43,-10.96 4.42,-9.07 15.23,-19.81 30.22,-32.03 29.95,-24.87 77.92,-54.71 130.71,-102.68 25.82,-24.5 53.39,-54.03 73.7,-95.47 5.18,-10.73 9.63,-22.46 12.99,-34.87 8.83,2.45 17.93,4.77 27.37,6.59 6.37,1.07 12.32,2.4 18.73,3 6.27,0.76 12.29,1.45 18.42,1.49 5.92,0.36 11.77,0.21 17.37,-0.37 5.38,-0.17 10.67,-1.34 15.32,-2.41 4.59,-0.76 8.79,-2.63 12.24,-4.14 3.54,-1.32 6.38,-2.85 8.5,-4.66 4.1,-3.1 6.41,-4.85 6.41,-4.85 0,0 -2.85,0.14 -7.86,0.4 -2.33,0.3 -5.21,-0.01 -8.5,-0.82 -3.21,-0.65 -6.57,-1.16 -10.3,-2.93 -3.66,-1.46 -7.37,-2.92 -11.28,-5.43 -3.84,-2.08 -7.74,-4.6 -11.66,-7.68 -3.91,-2.67 -7.8,-6.11 -11.67,-9.49 -3.83,-3.14 -7.6,-7.21 -11.31,-10.75 -14.78,-14.92 -27.81,-32.03 -36.91,-44.92 -4.59,-6.42 -8.11,-11.95 -10.47,-15.7 -1.28,-1.94 -1.71,-3.11 -2.26,-4.06 -0.71,-1.08 -1.05,-1.68 -1.05,-1.68 l -2.82,3.36 c -0.92,-3.13 -1.72,-6.31 -2.79,-9.38 l -3.54,-9.27 -0.9,-2.35 c 2.33,5.46 0.56,1.24 0.9,1.87 l -0.29,-0.96 -1.17,-3.83 c -0.3,-1.06 -1.08,-3.07 -0.94,-3.36 l 0.52,-0.29 c 0.29,-0.04 0.2,-0.03 0.31,-1.62 -0.08,-4.38 0.68,-10.27 2.75,-17.42 4,-14.12 11.79,-31.76 21.09,-50.3 9.45,-18.52 20.14,-38.33 30.39,-59.77 10.41,-21.31 20.7,-44.47 28.18,-70.45 7.36,-25.89 12.89,-55.46 9.46,-86.94 -1.39,-15.66 -5.51,-31.39 -10.87,-46.38 -3.09,-7.26 -6.05,-14.74 -9.88,-21.47 l -5.76,-10.1 c -1.77,-3.16 -3.03,-4.96 -4.66,-7.47 -22.86,-35.34 -43.42,-71.73 -61.45,-107.45 -5.09,-10.13 -9.94,-20.22 -14.57,-30.27 26.74,-57.7 54.06,-186.53 35.82,-247.7 5.8,-20.29 7.85,-39.48 6.52,-55.82 -1.31,-22.09 -9.1,-37.91 -15.03,-47.18 -3.1,-4.65 -5.73,-7.91 -7.76,-9.95 -1.88,-2.07 -2.83,-3.14 -2.83,-3.14 0,0 2.23,5.48 4.42,15.66 2.12,10.21 2.64,25.3 -1.79,42.86 -4.69,17.56 -14.69,37.42 -29.65,57.82 -15.27,20.03 -35.79,41.3 -59.66,58.95 -3.2,2.37 -4.85,3.37 -8.41,5.77 -13.08,-1.41 -27.75,-2.59 -31.89,-3.13 -7.51,-0.58 -13.39,-2.63 -19.86,-1.84 -2.92,0.48 -22.33,-0.11 -43.73,-0.75 l -127.3,-88.3 c -59.61,-44.53 -173.47,-398.6 -139.57,-597.08 6.04,9.13 12.17,18.04 18.44,26.64 m 1073,1953.98 c 37.27,-4.13 63.16,-13.89 81.2,-27.32 0.79,83.93 -91.79,199.36 -214.83,265.98 -16.88,9.14 -34.46,20.47 -52.38,33.01 -13.07,-106.4 -85.77,-241.58 186.01,-271.67 m 130.8,-310.08 c 60.87,-141.85 81.03,-189.29 59.96,-269.01 l 0.15,0.02 c -8.91,-42.61 7.27,-67.63 24.38,-85.54 30.87,-32.34 91.44,-53.89 160.07,-58.25 13.69,92.35 1.05,201.57 -60.57,274.97 -47.58,56.67 -73.7,125.66 -98.97,192.39 -27.05,71.42 -52.73,138.9 -99.01,166.45 3.63,-23.06 1.6,-48.23 -1.51,-72.81 -5.16,-40.53 -11.01,-86.46 15.5,-148.22 M 4930.7,2610.22 c -0.23,-8.25 -34.82,-784.95 -471.17,-886.37 11.65,-72.07 -0.49,-193.15 -130.23,-353.57 -138,-170.61 -226.53,-235.99 -282.55,-259.25 -48.9,-121.768 -205.51,-318.819 -522.61,-356.428 -36.98,-44.563 -86.78,-61.102 -137.56,-60.36 -37.3,0.559 -75.11,10.41 -108.7,25.317 -77.66,34.492 -158.6,131.851 -162.73,267.89 -38.16,42.091 -104.94,148.901 -39.61,337.701 -18.46,16.24 -36.73,39.73 -42.97,71.75 -7.15,36.74 3.07,73.92 30.37,110.94 -52.69,95.87 -38.59,203.47 -24.89,307.93 12.06,92.04 23.45,178.93 -7.55,258 -21.7,55.34 -34.49,115.88 -40.71,177.6 6.2705,64.6034 -182.7271,363.1925 -0.08,197.32 8.65,96.04 28.2,184.05 49.33,247.34 -98.07,181.75 -10.48,574.82 89.7,744.52 -39.41,37.76 -63.16,104.63 -64.45,183.79 -0.11,7.13 -0.4,16.52 -0.74,27.49 -4.24,135.02 -1.45,205.33 25.76,239.68 9.42,11.86 21.25,20.59 33.77,29.83 8.98,6.6 30,22.09 30.67,28.89 0.29,2.95 -3.03,15.17 -21.83,36.07 -91.36,101.6 -38.47,209.32 -15.77,251.04 -39.63,105.38 -68.27,376.97 -38.12,483.59 37.82,133.66 9.27,358 -17.29,446.06 -21.13,69.86 -12.8,140.9 22.87,194.86 25.88,39.17 78.24,88.22 180.79,99.53 90.75,9.96 182.76,-5.17 263.92,-18.53 52.71,-8.69 102.52,-16.9 134.64,-14.35 84.31,6.7 180.23,-73.33 291.39,-165.94 57.84,-48.21 117.63,-98.04 164.52,-123.44 127.47,-69.02 260.03,-201.79 271.39,-340.96 66.8,-48.72 97.87,-130.76 128.06,-210.4 22.03,-58.22 44.83,-118.42 80.51,-160.93 96.6,-115.07 107.16,-284.12 74.51,-413.83 273.42,-260.18 215.5,-894.98 141.57,-1078.45 -8.37,-19.25 -4.91,-28.15 28.61,-73 38.86,-52.1 92.09,-123.41 87.18,-251.33 M 3993.38,1200.1 c 0.08,0 0.14,0.03 0.21,0.03 -0.1,0 -0.21,-0.03 -0.27,-0.03 z m 116.49,2670.5 c 21.38,-38.74 10.58,-205.62 10.58,-205.62 0,0 81.36,121.39 71.06,204.4 -9.63,77.07 -37.9,200.19 32.16,226.38 -137.9,-4.04 -143.29,-171.81 -113.8,-225.16 m 536.22,-626.04 c -18.35,4.09 -40.57,9.57 -66.5,14.23 -25.93,4.94 -55.4,10.43 -89.02,13 -33.69,1.9 -71.25,4.16 -116.4,-10.79 -11.25,-3.79 -22.95,-9.72 -34.38,-17.53 -11.4,-8.02 -22.29,-18.94 -30.92,-31.72 -8.9,-12.56 -14.28,-29.14 -17,-37.32 -4.07,-13.13 -6.36,-23.24 -8.78,-34.51 -8.6,-43.62 -11.58,-85.43 -15.78,-125.82 -4.42,-40.02 -9.31,-79.61 -20.84,-110 -5.34,-15.3 -12.36,-27.21 -19.95,-35.36 -3.95,-3.93 -8.04,-7.06 -12.49,-10.08 -9.24,-5.5 -18.48,-11.01 -27.64,-16.49 -17.81,-10.67 -37.76,-23.41 -54.84,-35.8 -17.64,-12.32 -34.89,-25.12 -50.85,-38.53 -5.31,-4.32 -10.35,-8.68 -15.47,-13 -20.79,62.75 -39.93,167.81 -80.75,196.24 36.87,-92 15.32,-228.08 -43.41,-309.56 -7.43,-6.72 -15,-13.7 -22.2,-19.98 -23.14,-20.16 -44.84,-38.05 -64.97,-52.73 -20.99,-9.09 -43.79,-19.49 -63.03,-29.55 -16.27,16.06 -33.82,30.01 -51.93,41.99 -47.67,31.05 -97.52,49.24 -148.12,58.51 -7.07,1.35 -11.99,1.83 -17.6,2.64 -8.86,0.84 -15.19,1.46 -22.76,1.23 -14.55,0.02 -28.55,-2.09 -41.43,-5.52 -26.02,-6.78 -47.76,-17.95 -66.35,-30.29 -37.07,-24.86 -63.08,-53.08 -83.94,-78.97 -20.93,-25.85 -36.89,-49.34 -49.09,-69.27 -12.46,-19.67 -21.29,-35.65 -27.36,-46.51 -5.97,-10.95 -9.16,-16.8 -9.16,-16.8 0,0 21.03,16.8 55.58,46.95 17.65,14.63 38.46,32.81 63.25,51.3 24.95,18.05 53.41,37.85 84.92,51.16 15.78,6.38 31.95,11.58 47.53,12.69 7.82,0.64 15.35,0.59 22.62,-0.51 3.33,-0.22 7.85,-1.55 9.98,-1.96 5.25,-1.27 11.37,-2.59 15.2,-3.87 36.92,-10.35 76.27,-28.7 109.32,-53.31 33.07,-24.89 59.84,-56.67 73.93,-93.62 14.54,-36.86 16.22,-79.35 8.32,-123.22 -1.74,-11.08 -4.62,-21.73 -7.53,-33.28 l -10.41,-37.14 c -6.76,-24.48 -13.73,-48.66 -21.43,-71.43 -7.84,-22.7 -15.73,-44.48 -25.24,-62.5 -9.64,-18.14 -19.82,-31.91 -33.13,-43.26 -26.67,-22.6 -70.8,-38.7 -111.94,-54 -10.66,-4 -21.12,-7.88 -31.48,-11.78 -11.18,-4.38 -21.36,-8.83 -31.46,-13.41 -20,-9.19 -38.67,-18.81 -56.43,-28.28 -35.43,-19.11 -66.72,-38.56 -93.56,-57.38 -27.03,-18.45 -49.4,-36.64 -66.44,-53.55 -17,-16.61 -29.01,-32.88 -31.26,-47 -1.19,-7.13 1.65,-12.55 3.95,-14.79 2.28,-2.49 3.9,-3.12 3.81,-3.23 0.66,-0.33 -6.54,6.16 -1.5,16.21 4.85,9.83 19.46,20 38.61,30.79 19.47,10.72 44.47,21.66 73.4,33.55 29.15,11.42 62.51,23.44 98.96,35.55 18.14,6.13 37.25,12.04 56.81,17.63 9.67,2.85 19.75,5.61 29.3,7.86 10.53,2.52 21.2,5.07 32.02,7.69 22.1,5.73 45.04,11.63 69.5,19.88 24.19,8.12 50.67,19.37 76.43,37.61 4.32,3.01 8.27,6.49 12.32,9.9 34.47,-29.6 79.22,-55.4 119.47,-85.63 20.43,-15.17 39.18,-31.49 54.05,-48.89 7.05,-8.83 13.57,-17.78 18.15,-27 4.73,-9.16 7.99,-18.5 9.69,-27.51 1.74,-8.99 2.17,-17.64 1.51,-25.29 -0.38,-7.8 -1.97,-14.44 -3.27,-20 -1.22,-5.61 -3.12,-9.73 -3.99,-12.71 -1.02,-2.98 -1.55,-4.53 -1.55,-4.53 0,0 0.92,1.36 2.62,3.94 1.64,2.68 4.56,6.29 7.31,11.54 2.69,5.24 6.15,11.63 8.7,19.71 2.82,7.97 4.94,17.51 5.65,28.26 0.82,10.74 -0.1,22.62 -2.83,34.81 -2.52,12.32 -7.22,24.58 -12.77,36.97 -11.62,24.31 -27.82,47.9 -45.12,69.48 -23.31,29.26 -48.3,56.3 -67.89,79.61 -46.38,63.1 -5.66,335.09 133.7,346.11 24.58,-11.73 50.49,-10.64 78.89,-9.4 73.29,3.27 126.66,16.55 195.44,39.1 60.21,19.74 96.35,50.56 148.75,90.11 100.14,75.58 131.39,178.09 129.37,257.97 -0.17,7.28 -2.33,10.87 -2.33,10.87 0,0 -1.38,-3.77 -3.9,-10.87 -2.21,-7 -6.08,-17.16 -9.72,-29.75 -1.02,-3.16 -1.81,-6.49 -3.16,-9.85 -1.57,-3.33 -3.17,-6.79 -4.91,-10.41 -3.46,-7.15 -6.64,-14.88 -10.25,-22.93 -3.03,-8.24 -8.48,-16.16 -13.44,-24.5 -5.47,-8.17 -9,-17.56 -16.01,-25.65 -6.23,-8.25 -12.74,-16.85 -19.46,-25.76 -7.56,-8.06 -15.4,-16.36 -23.44,-24.91 -8.04,-8.33 -17.76,-15.78 -26.65,-23.89 -9.06,-8.02 -19.9,-14.87 -29.79,-22.53 -10.24,-7.43 -21.84,-13.69 -32.66,-20.92 -11.38,-6.49 -23.51,-12.29 -35.07,-18.99 -24.63,-11.01 -49.54,-22.64 -75.78,-30.58 -88.89,-26.97 -197.45,-36.45 -280.17,15.75 -15.01,9.49 -25.52,20.51 -31.92,33.95 -0.12,0.28 -0.16,0.53 -0.29,0.82 0.09,20.36 3.33,41.22 7.56,59.39 17.14,7.51 35.02,16.18 53.34,26.42 28.96,16.08 59.2,35.29 89.81,56.62 7.53,5.29 15.14,10.69 22.85,16.11 8.4,6.08 12.32,8.37 22.16,14.91 15.81,10.74 31.99,21.71 48.44,32.88 15.98,10.46 32.09,20.81 48.93,30.79 8.37,5.17 16.82,9.93 25.27,14.54 8.47,4.83 16.52,9.69 26.08,14.65 9.06,4.86 18.13,9.75 27.21,14.63 13.92,7.46 26.83,17.13 37.89,28.26 21.94,22.39 35.91,48.53 45.07,73.19 5.32,15.16 9.27,29.94 12.39,44.44 73.16,18.08 162.9,-41.21 177.1,-52.22 -9.7,79.58 -108.58,153.22 -164.63,168.3 1.55,35.21 2.01,68.58 4.86,98.01 0.83,8.39 2.17,17.78 3.19,23.61 2.6,10.56 2.62,12.98 4.15,16.64 2.52,6.97 9.24,14.04 20.6,20.49 23.01,12.82 56.07,19.06 85.77,23.1 30.23,4 59.26,6.44 85.12,8.49 25.88,1.65 48.79,3.89 67.62,5.71 37.74,3.72 59.09,8.29 59.09,8.29 0,0 -21.02,4.85 -57.79,13.29"
         style="fill:#231f20;fill-opacity:1;fill-rule:nonzero;stroke:#000000;stroke-opacity:1"
         id="path388"
         sodipodi:nodetypes="ccccccccccccccccccscccccccccccccccccccccccccccccccccccccccccccccccccccccccccccccccccccccccccccccccccccccccccccccccccccccccccccccccccccccccccccccccccccccccccccccccccccccccccccccccccccccccccccccccccccccccccccccccccccccccccccccccccccccscccccccccccccccccccccccccccccccccccccccccccccccccccccscccccccccccccccccccccsccccccccccccccccccccccccccccccccccccccccccccccccccccccccccccccccccccccccccccccccccccccccccccccccccccccccccccccccccccccccccccccccccccccsccccccccccccccccccccccccccccccccccccccccccccccccccccccccccccccccccsccccccccccccccccccccccccccccccccccccccccccccccccccccccccccccccccccccccccccccccccccccccccccccccccccscccccccccccccccccccccccccccccccccscccccccccccccccccsccsccccccccccccccccccccccccccccccccccccccccccccccccccccccccccccccccccccccccccccccccccccccccscccccccccccccccccccccccccccccccccccccccccccc" /></g><path
       id="path1840"
       style="display:inline;fill:#000000;stroke:none;stroke-width:7.50001875;stroke-miterlimit:4;stroke-dasharray:none;stroke-opacity:1;fill-opacity:1"
       d="m 359.87731,443.89379 a 240,240.46301 0 0 1 -240,-240.4629 240,240.46301 0 0 1 240,-240.462897 240,240.46301 0 0 1 4.74024,0.287115 V 443.79857 a 240,240.46301 0 0 1 -4.74024,0.0952 z"
       inkscape:label="neuron" /><path
       style="fill:none;fill-rule:evenodd;stroke:#000000;stroke-width:8.22146;stroke-linecap:butt;stroke-linejoin:miter;stroke-miterlimit:4;stroke-dasharray:none;stroke-opacity:1"
       d="M 3.7355399,447.81041 176.35727,355.07218"
       id="path2433"
       inkscape:connector-type="polyline"
       inkscape:connector-curvature="0" /><path
       style="display:inline;fill:none;fill-rule:evenodd;stroke:#000000;stroke-width:7.65347;stroke-linecap:butt;stroke-linejoin:miter;stroke-miterlimit:4;stroke-dasharray:none;stroke-opacity:1"
       d="M 0.78206403,200.99919 119.87731,203.4309"
       id="path2435"
       inkscape:connector-type="polyline"
       inkscape:connector-curvature="0"
       inkscape:label="dendrite2" /><path
       style="display:inline;fill:none;fill-rule:evenodd;stroke:#000000;stroke-width:7.58392;stroke-linecap:butt;stroke-linejoin:miter;stroke-miterlimit:4;stroke-dasharray:none;stroke-opacity:1"
       d="M 179.42138,41.8994 3.5147811,-51.867959"
       id="path2437"
       inkscape:connector-type="polyline"
       inkscape:connector-curvature="0"
       inkscape:label="dendrite1" /><path
       d="m 551.39352,234.83156 c 3.63265,-5.64974 8.47824,-10.73178 14.56362,-13.26801 3.04126,-1.25204 6.35665,-1.94325 9.85927,-2.02246 1.80403,-0.0361 3.4122,0.0681 5.40799,0.28753 2.02779,0.22863 4.0664,0.45504 6.11429,0.68807 4.16946,0.45746 8.57963,0.9271 13.24698,0.73462 4.65356,-0.18626 9.53883,-1.04995 14.05418,-2.84143 2.25813,-0.88385 4.41063,-1.98343 6.4484,-3.20409 2.03536,-1.23561 4.22816,-2.78799 5.70933,-4.01563 l 1.36347,-1.08782 1.08045,-0.90035 c 0.72852,-0.57417 5.19683,-3.56701 6.71642,-4.24336 3.05599,-1.32119 6.00821,-1.83114 8.90185,-1.24786 1.4509,0.28622 2.90575,0.81458 4.36293,1.56256 0.73099,0.36806 1.46489,0.78744 2.20255,1.25061 0.78703,0.49531 1.36411,0.90024 2.3506,1.58305 2.3428,1.56763 4.4928,2.33803 6.66171,3.00456 2.15976,0.64318 4.30059,1.00802 6.42636,1.23955 0,0 10.79157,0.99385 12.07079,0.78557 1.14223,-0.11173 2.72549,-0.15979 4.64509,0.42091 1.93541,0.5603 4.25336,1.95161 6.98981,4.00862 1.37165,1.00866 2.87912,2.15296 4.60053,3.23083 1.72504,1.0726 3.72923,2.05601 5.91355,2.57589 1.09237,0.23639 2.20109,0.41251 3.29703,0.41076 l 1.34537,0.005 c 0.34799,0.0217 0.68619,0.0108 1.06801,0.0651 1.50706,0.14299 2.86673,0.61539 3.93,1.38682 1.06526,0.76772 1.76136,1.90857 2.03486,3.18592 0.28557,1.27581 0.13741,2.64762 -0.22666,3.86403 -0.73117,2.4609 -2.17015,4.30449 -3.19925,5.49014 -1.05947,1.18539 -0.9631,1.33916 0.33578,0.35953 1.26505,-1.00184 3.11611,-2.54122 4.51458,-5.17567 0.68248,-1.30697 1.23572,-2.92904 1.21017,-4.79162 -7.4e-4,-1.84603 -0.71209,-3.94718 -2.16442,-5.53307 -1.43336,-1.59577 -3.39415,-2.69876 -5.40487,-3.31158 -0.49197,-0.17052 -1.0519,-0.28929 -1.5991,-0.42126 l -1.36825,-0.26828 c -0.72507,-0.12965 -1.40552,-0.38864 -2.06909,-0.66106 -2.62853,-1.14962 -4.80756,-3.55806 -7.19819,-6.08666 -1.6098,-1.72754 -3.42842,-3.48626 -5.37081,-4.98636 1.60048,-1.12257 3.00599,-2.35877 4.33429,-3.73363 l 0.97852,-1.06914 0.75859,-0.94975 0.69294,-0.87988 c 0.2026,-0.22905 0.39668,-0.46913 0.61022,-0.67225 1.64471,-1.71854 3.78847,-2.4688 6.26897,-2.57162 2.46702,-0.0956 5.04806,0.42398 7.46679,1.00808 4.84959,1.2397 9.30428,2.64207 13.22508,2.82135 1.94858,0.10417 3.76529,-0.16761 5.18511,-0.79724 1.43007,-0.61288 2.41688,-1.50178 3.07531,-2.27415 0.66897,-0.77554 1.02269,-1.47089 1.27418,-1.91933 0.22026,-0.46204 0.33397,-0.70194 0.33397,-0.70194 0,0 -0.16028,0.21005 -0.47003,0.61755 -0.3257,0.38931 -0.81636,0.96608 -1.55976,1.57395 -0.73739,0.60712 -1.75426,1.21894 -3.0525,1.51334 -1.2939,0.29832 -2.83795,0.26149 -4.54196,-0.0781 -3.44588,-0.66256 -7.35735,-2.68568 -12.25875,-4.58023 -2.46801,-0.92848 -5.20312,-1.91866 -8.50632,-2.2388 -1.6421,-0.14415 -3.45581,-0.10195 -5.29247,0.39512 -1.83285,0.48549 -3.65493,1.40946 -5.17795,2.66117 -0.39211,0.30382 -0.74377,0.64142 -1.10607,0.97489 l -0.90699,0.91815 -0.85568,0.86304 -0.76023,0.66306 c -1.05031,0.88607 -2.26067,1.76075 -3.53168,2.47198 -2.57238,1.41176 -5.4824,2.4092 -8.61217,2.84618 -3.12241,0.43372 -6.4483,0.38877 -9.73339,-0.19058 -1.63723,-0.28762 -3.2709,-0.70581 -4.80027,-1.25978 -1.50818,-0.53215 -3.02848,-1.26429 -3.92083,-1.97436 -0.61017,-0.47332 -1.61915,-1.26212 -2.48947,-1.87126 -0.91259,-0.6455 -1.87778,-1.27832 -2.9049,-1.87058 -2.06157,-1.17082 -4.3902,-2.16003 -6.90874,-2.76006 -1.17028,-0.27664 -2.37833,-0.45317 -3.59618,-0.54426 0.33164,-2.14021 0.59181,-4.50748 0.65389,-6.92584 0.0485,-1.82114 -0.002,-3.65314 -0.23954,-5.37583 -0.22488,-1.7128 -0.65859,-3.34923 -1.4061,-4.61245 -0.39843,-0.62681 -0.87177,-1.13815 -1.38224,-1.46392 -0.51983,-0.30834 -1.01962,-0.43892 -1.41906,-0.46499 -0.80079,-0.062 -1.21222,0.13592 -1.21446,0.0938 -0.009,0.0371 0.46024,-0.008 1.12163,0.285 0.3294,0.13694 0.67899,0.38266 0.97098,0.72507 0.28321,0.36176 0.48526,0.83564 0.61754,1.3796 0.45608,2.25938 -0.37096,5.54378 -1.50976,8.60762 -1.14363,3.08932 -2.66573,6.05229 -3.89717,8.09976 -0.0932,0.15542 -0.16955,0.2661 -0.25987,0.41023 -1.24867,0.33067 -2.46061,0.74531 -3.6198,1.22763 -2.29745,0.95104 -4.41416,2.13488 -6.38683,3.44352 -0.98917,0.64839 -1.93253,1.34147 -2.86093,2.04258 l -2.46215,1.94146 c -1.76646,1.42832 -3.05377,2.252 -4.6087,3.20318 -1.57688,0.92331 -3.19196,1.73698 -4.86024,2.37034 -3.32359,1.29934 -6.82712,1.99703 -10.54632,2.17898 -3.7243,0.16155 -7.66404,-0.11543 -11.7343,-0.47221 -2.07832,-0.18835 -4.14582,-0.36849 -6.20691,-0.55161 -2.09096,-0.17829 -4.57954,-0.24117 -6.83349,-0.0969 -4.60818,0.28852 -9.26914,1.37715 -13.41661,3.40569 -4.15123,2.01611 -12.3714,9.97087 -13.16728,11.00493"
       style="fill:#231f20;fill-opacity:1;fill-rule:nonzero;stroke:#000000;stroke-width:0.75;stroke-opacity:1"
       id="path3153"
       inkscape:label="axon" /><path
       d="m 635.47232,194.05363 c -0.32375,4.63059 0.30169,9.59594 2.74412,13.93324 1.22731,2.15999 2.85548,4.18214 4.85609,5.99711 1.0324,0.93253 2.01152,1.69644 3.26545,2.60001 1.27647,0.91526 2.55828,1.83712 3.84833,2.7604 2.61918,1.88817 5.38345,3.89237 8.01185,6.35379 2.62308,2.45138 5.08891,5.35461 6.94015,8.52826 0.931,1.58119 1.7077,3.2153 2.36559,4.85102 0.65004,1.64187 1.25507,3.51993 1.58662,4.87689 l 0.3234,1.22826 0.23976,0.99223 c 0.17585,0.65278 1.48219,4.3956 2.07356,5.49991 1.20607,2.20158 2.70137,3.95012 4.63361,5.12933 0.96616,0.59435 2.03894,1.07117 3.20768,1.44077 0.58321,0.18895 1.19022,0.35403 1.81828,0.49941 0.67058,0.15454 1.18028,0.24725 2.04751,0.41038 2.03633,0.41402 3.61721,1.12383 5.16432,1.89449 1.53172,0.77755 2.93254,1.68289 4.26718,2.6464 0,0 6.69716,4.98092 7.35054,5.73231 0.61541,0.63428 1.51445,1.46075 2.87976,2.14737 1.36568,0.70471 3.31162,1.19317 5.78746,1.56522 1.23136,0.19756 2.60007,0.39704 4.06443,0.73776 1.4642,0.34517 3.05213,0.8759 4.54501,1.72677 0.73642,0.43716 1.45637,0.91236 2.09226,1.46889 l 0.78352,0.67986 c 0.21148,0.16574 0.40322,0.34264 0.6485,0.50933 0.93709,0.69351 1.93045,1.14971 2.88046,1.30802 0.94958,0.16114 1.84546,-0.0491 2.55464,-0.54091 0.71554,-0.48497 1.22047,-1.23724 1.53303,-2.02226 0.63545,-1.58544 0.59379,-3.22505 0.50677,-4.33207 -0.10478,-1.1223 0.0174,-1.14935 0.34995,-0.007 0.30327,1.13591 0.71538,2.83429 0.3928,4.84372 -0.16659,0.99117 -0.54404,2.07235 -1.36131,2.9788 -0.79573,0.91084 -2.11418,1.58733 -3.6411,1.6338 -1.52015,0.061 -3.13439,-0.38874 -4.56646,-1.10572 -0.35926,-0.16525 -0.7357,-0.39052 -1.11043,-0.60282 l -0.91041,-0.56129 c -0.47704,-0.30366 -0.98393,-0.52078 -1.48677,-0.72276 -2.02223,-0.76523 -4.32567,-0.6812 -6.80378,-0.64513 -1.67943,0.0365 -3.49358,-0.0174 -5.26822,-0.26175 0.44612,1.36559 0.73002,2.6884 0.90933,4.04052 l 0.10783,1.02387 0.0315,0.85342 0.0235,0.78566 c 0.019,0.21578 0.0283,0.43269 0.0649,0.64122 0.21505,1.68218 1.13718,3.13944 2.53384,4.44785 1.39196,1.29798 3.11515,2.35016 4.77187,3.28817 3.35129,1.84689 6.54325,3.41325 8.89814,5.31266 1.1768,0.93658 2.1151,1.99179 2.66865,3.02246 0.5667,1.0276 0.757,1.9667 0.80674,2.68178 0.0545,0.722 -0.0396,1.24457 -0.0867,1.59343 -0.0711,0.33975 -0.10841,0.51582 -0.10841,0.51582 0,0 -0.003,-0.18495 -0.007,-0.54315 -0.0215,-0.35729 -0.058,-0.89077 -0.228,-1.56774 -0.1668,-0.67354 -0.49393,-1.49112 -1.12127,-2.29466 -0.62312,-0.80329 -1.53595,-1.56796 -2.67216,-2.26427 -2.28722,-1.42006 -5.43104,-2.4046 -9.09455,-3.9545 -1.83371,-0.79301 -3.84916,-1.69099 -5.90597,-3.20774 -1.016,-0.76145 -2.05145,-1.70181 -2.90426,-2.8784 -0.85556,-1.16892 -1.51597,-2.54883 -1.86147,-3.93888 -0.0969,-0.34878 -0.15572,-0.69372 -0.22251,-1.04202 l -0.13133,-0.91307 -0.12527,-0.85985 -0.15597,-0.71274 c -0.22841,-0.9699 -0.55469,-2.01532 -0.98663,-3.01083 -0.88612,-2.00109 -2.14688,-3.96886 -3.77675,-5.7714 -1.627,-1.79721 -3.57842,-3.46129 -5.73639,-4.84091 -1.07499,-0.68813 -2.20418,-1.31 -3.33128,-1.81197 -1.10538,-0.50199 -2.30397,-0.91141 -3.12826,-1.01335 -0.55838,-0.0757 -1.48434,-0.19792 -2.25235,-0.33852 -0.80823,-0.14407 -1.64155,-0.32106 -2.49338,-0.54947 -1.702,-0.46733 -3.48092,-1.15969 -5.20248,-2.14044 -0.79901,-0.4568 -1.57684,-0.98216 -2.32356,-1.55467 -0.72938,1.22459 -1.59811,2.52502 -2.60392,3.75022 -0.75641,0.92354 -1.5746,1.80258 -2.45517,2.53214 -0.86855,0.73144 -1.8255,1.3193 -2.80397,1.56385 -0.50148,0.10739 -0.99675,0.1198 -1.43364,0.0218 -0.43481,-0.11136 -0.78141,-0.30031 -1.02468,-0.48997 -0.49188,-0.37542 -0.64567,-0.68166 -0.66506,-0.66208 0.0107,-0.0229 0.26407,0.23711 0.77436,0.42801 0.25033,0.0994 0.55929,0.15537 0.87642,0.13439 0.32039,-0.035 0.64192,-0.16644 0.95311,-0.36788 1.23832,-0.88403 2.17287,-2.92457 2.83129,-5.01431 0.66658,-2.10477 1.05888,-4.33906 1.22561,-5.97408 0.0128,-0.12399 0.0161,-0.21732 0.0258,-0.33425 -0.58292,-0.79632 -1.10832,-1.61546 -1.57391,-2.44127 -0.9249,-1.63428 -1.64452,-3.29185 -2.22668,-4.93799 -0.29528,-0.82157 -0.54471,-1.64199 -0.78197,-2.45878 l -0.59389,-2.20668 c -0.41081,-1.60066 -0.80378,-2.65992 -1.29726,-3.91781 -0.51826,-1.25526 -1.10594,-2.47577 -1.80221,-3.63425 -1.37094,-2.32648 -3.10561,-4.44722 -5.18776,-6.42272 -2.09391,-1.96801 -4.50187,-3.82883 -7.02007,-5.71637 -1.28847,-0.96077 -2.56712,-1.92011 -3.84334,-2.87472 -1.29147,-0.97214 -2.76422,-2.20285 -4.01143,-3.41684 -2.55267,-2.47884 -4.79129,-5.37938 -6.32669,-8.48352 -1.54293,-3.09992 -2.89108,-11.19425 -2.90793,-12.10819"
       style="fill:#231f20;fill-opacity:1;fill-rule:nonzero;stroke:#000000;stroke-width:0.533071;stroke-opacity:1"
       id="path3153-6" /><path
       d="m 591.57753,210.72912 c 4.32829,0.2036 9.18133,-1.09748 13.83351,-5.19611 2.31919,-2.05828 4.59475,-4.73378 6.75464,-7.97758 1.11068,-1.67374 2.04964,-3.25316 3.18111,-5.27101 1.14748,-2.05385 2.30237,-4.11645 3.46043,-6.19202 2.36414,-4.21495 4.87011,-8.6641 7.78083,-12.93086 2.9,-4.25777 6.195,-8.29938 9.61301,-11.39849 1.70482,-1.55761 3.42632,-2.87761 5.12345,-4.01211 1.70128,-1.12266 3.61711,-2.19042 4.97836,-2.79689 l 1.23722,-0.58539 0.99479,-0.4393 c 0.65839,-0.31734 4.49842,-2.6023 5.67624,-3.59823 2.35409,-2.02782 4.3408,-4.47787 5.88184,-7.57341 0.77504,-1.54813 1.46166,-3.25515 2.06732,-5.10509 0.30652,-0.92343 0.59556,-1.88248 0.87046,-2.87313 0.29287,-1.05769 0.49195,-1.85997 0.8358,-3.22542 0.83685,-3.20821 1.85545,-5.72418 2.92451,-8.19139 1.07226,-2.44362 2.2374,-4.69108 3.44338,-6.83895 0,0 6.19032,-10.78741 7.04641,-11.85718 0.73658,-1.00278 1.71748,-2.4612 2.66712,-4.63889 0.9669,-2.179504 1.85476,-5.251337 2.74746,-9.143419 0.45587,-1.936543 0.94348,-4.087754 1.5861,-6.397636 0.64682,-2.309918 1.49685,-4.825244 2.63029,-7.212959 0.57568,-1.178964 1.18391,-2.334695 1.85108,-3.364413 l 0.81634,-1.26865 c 0.20349,-0.341226 0.41326,-0.65235 0.62511,-1.046291 0.86291,-1.509168 1.51263,-3.090792 1.86994,-4.585257 0.35991,-1.493951 0.35535,-2.879782 0.0426,-3.955588 -0.30483,-1.086166 -0.90946,-1.82589 -1.58712,-2.262953 -1.36767,-0.889254 -2.93429,-0.717167 -4.00485,-0.508988 -1.08893,0.236923 -1.088,0.04773 0.0694,-0.546219 1.14511,-0.547907 2.84824,-1.302545 4.68684,-0.929732 0.90526,0.19559 1.85011,0.714669 2.53316,1.932277 0.69194,1.183674 1.0474,3.199228 0.75896,5.58156 -0.2732,2.370815 -1.05199,4.921955 -2.045,7.205936 -0.23524,0.572021 -0.53122,1.174807 -0.81451,1.774071 l -0.7315,1.458892 c -0.39234,0.765085 -0.70903,1.571074 -1.01041,2.369804 -1.1674,3.209093 -1.58929,6.80206 -2.09479,10.671068 -0.33108,2.621217 -0.77746,5.458835 -1.39612,8.24714 1.39442,-0.786016 2.71284,-1.315885 4.03634,-1.684244 l 0.9961,-0.235266 0.81757,-0.10491 0.75143,-0.08794 c 0.20915,-0.04374 0.41721,-0.07248 0.62326,-0.143176 1.64483,-0.445734 3.23001,-1.981343 4.77711,-4.24864 1.53622,-2.25921 2.91104,-5.019896 4.16295,-7.66925 2.48439,-5.355944 4.66759,-10.444689 6.98485,-14.247476 1.14599,-1.89959 2.35278,-3.434224 3.45243,-4.366223 1.09959,-0.952367 2.03313,-1.310947 2.72326,-1.435307 0.69773,-0.132247 1.17365,-0.01936 1.49479,0.03145 0.30725,0.0889 0.46639,0.135688 0.46639,0.135688 0,0 -0.17627,0.01615 -0.51748,0.04637 -0.3441,0.05687 -0.85883,0.14878 -1.53894,0.45848 -0.67615,0.304559 -1.52405,0.86896 -2.42403,1.901409 -0.8988,1.025864 -1.82402,2.501797 -2.73297,4.32221 -1.84716,3.66577 -3.46718,8.64135 -5.73746,14.465671 -1.15272,2.91639 -2.44474,6.123558 -4.33356,9.435698 -0.9446,1.636931 -2.06347,3.31586 -3.3669,4.724892 -1.29677,1.412861 -2.75144,2.534611 -4.14717,3.165041 -0.35245,0.17408 -0.69291,0.28855 -1.03833,0.41564 l -0.89596,0.26475 -0.8441,0.25179 -0.71104,0.29017 c -0.9711,0.42011 -2.03526,0.99806 -3.07501,1.7378 -2.09394,1.51489 -4.23782,3.61288 -6.30513,6.27671 -2.06162,2.659 -4.06746,5.81613 -5.84805,9.27734 -0.88783,1.72429 -1.72452,3.5289 -2.44685,5.32242 -0.71764,1.75961 -1.36763,3.65877 -1.644,4.95313 -0.19356,0.87725 -0.51133,2.33178 -0.81216,3.54075 -0.3129,1.27203 -0.66255,2.5854 -1.06507,3.93105 -0.81465,2.68938 -1.85982,5.5136 -3.16646,8.26705 -0.60796,1.27804 -1.27644,2.52746 -1.98293,3.73134 1.00441,1.05954 2.05052,2.33183 2.99533,3.82317 0.71255,1.1214 1.36896,2.34289 1.87062,3.67025 0.50566,1.30913 0.85566,2.76572 0.87484,4.27834 -0.007,0.77643 -0.1033,1.54932 -0.29156,2.23823 -0.2005,0.68655 -0.45547,1.24033 -0.68862,1.63274 -0.46376,0.79296 -0.78821,1.05312 -0.77378,1.08222 -0.0194,-0.0153 0.2829,-0.42778 0.57525,-1.23764 0.14896,-0.39759 0.26941,-0.88388 0.31856,-1.37795 0.0365,-0.49821 -0.0183,-0.99193 -0.14187,-1.46493 -0.57005,-1.87684 -2.3049,-3.20364 -4.14663,-4.09586 -1.85423,-0.904 -3.89123,-1.37105 -5.40809,-1.52482 -0.11499,-0.012 -0.20292,-0.011 -0.31191,-0.0185 -0.88342,0.9626 -1.776,1.83684 -2.66188,2.6181 -1.75394,1.55152 -3.48527,2.78387 -5.17582,3.80075 -0.84475,0.51494 -1.67841,0.95815 -2.50602,1.38206 l -2.22558,1.07177 c -1.61002,0.74624 -2.70185,1.42925 -4.00427,2.28226 -1.30531,0.89154 -2.59273,1.88927 -3.84487,3.05258 -2.50864,2.29352 -4.90105,5.14185 -7.23118,8.52352 -2.32559,3.39955 -4.61772,7.28275 -6.9593,11.33987 -1.19332,2.07556 -2.38314,4.13569 -3.56794,6.19169 -1.20478,2.08101 -2.69467,4.46206 -4.11955,6.48968 -2.91076,4.14955 -6.15371,7.83603 -9.4369,10.4372 -3.28082,2.61268 -11.26363,5.24699 -12.13549,5.33295"
       style="fill:#231f20;fill-opacity:1;fill-rule:nonzero;stroke:#000000;stroke-width:0.646269;stroke-opacity:1"
       id="path3153-3"
       inkscape:label="axon3" /><text
       xml:space="preserve"
       transform="matrix(2.3790216,0,0,-4.9407137,-562.21573,1977.864)"
       id="text44670"
       style="font-style:normal;font-weight:normal;font-size:96px;line-height:1.25;font-family:sans-serif;white-space:pre;shape-inside:url(#rect44672);fill:#ffffff;fill-opacity:1;stroke:#000000;stroke-opacity:1"
       inkscape:label="Sigma"
       inkscape:export-filename="/home/kgd/work/code/vu/abrain/doc/src/_static/favicon-light.png"
       inkscape:export-xdpi="6.2800002"
       inkscape:export-ydpi="6.2800002"><tspan
         x="281.48047"
         y="392.75367"
         id="tspan55823">	Σ</tspan></text></g></svg>
