<?xml version="1.0" encoding="UTF-8"?>
<svg xmlns="http://www.w3.org/2000/svg" width="36.398pt" height="36.398pt" viewBox="0 0 36.398 36.398" version="1.1">
<defs>
<clipPath id="clip1">
  <path d="M 25 15 L 26 15 L 26 21 L 25 21 Z M 25 15 "/>
</clipPath>
<clipPath id="clip2">
  <path d="M 36.199219 18.199219 C 36.199219 8.257812 28.140625 0.199219 18.199219 0.199219 C 8.257812 0.199219 0.199219 8.257812 0.199219 18.199219 C 0.199219 28.140625 8.257812 36.199219 18.199219 36.199219 C 28.140625 36.199219 36.199219 28.140625 36.199219 18.199219 Z M 36.199219 18.199219 "/>
</clipPath>
<clipPath id="clip3">
  <path d="M 15 4 L 21 4 L 21 5 L 15 5 Z M 15 4 "/>
</clipPath>
<clipPath id="clip4">
  <path d="M 36.199219 18.199219 C 36.199219 8.257812 28.140625 0.199219 18.199219 0.199219 C 8.257812 0.199219 0.199219 8.257812 0.199219 18.199219 C 0.199219 28.140625 8.257812 36.199219 18.199219 36.199219 C 28.140625 36.199219 36.199219 28.140625 36.199219 18.199219 Z M 36.199219 18.199219 "/>
</clipPath>
<clipPath id="clip5">
  <path d="M 0 18 L 35 18 L 35 19 L 0 19 Z M 0 18 "/>
</clipPath>
<clipPath id="clip6">
  <path d="M 36.199219 18.199219 C 36.199219 8.257812 28.140625 0.199219 18.199219 0.199219 C 8.257812 0.199219 0.199219 8.257812 0.199219 18.199219 C 0.199219 28.140625 8.257812 36.199219 18.199219 36.199219 C 28.140625 36.199219 36.199219 28.140625 36.199219 18.199219 Z M 36.199219 18.199219 "/>
</clipPath>
<clipPath id="clip7">
  <path d="M 33 16 L 36.398438 16 L 36.398438 20 L 33 20 Z M 33 16 "/>
</clipPath>
<clipPath id="clip8">
  <path d="M 36.199219 18.199219 C 36.199219 8.257812 28.140625 0.199219 18.199219 0.199219 C 8.257812 0.199219 0.199219 8.257812 0.199219 18.199219 C 0.199219 28.140625 8.257812 36.199219 18.199219 36.199219 C 28.140625 36.199219 36.199219 28.140625 36.199219 18.199219 Z M 36.199219 18.199219 "/>
</clipPath>
<clipPath id="clip9">
  <path d="M 18 1 L 19 1 L 19 36.398438 L 18 36.398438 Z M 18 1 "/>
</clipPath>
<clipPath id="clip10">
  <path d="M 36.199219 18.199219 C 36.199219 8.257812 28.140625 0.199219 18.199219 0.199219 C 8.257812 0.199219 0.199219 8.257812 0.199219 18.199219 C 0.199219 28.140625 8.257812 36.199219 18.199219 36.199219 C 28.140625 36.199219 36.199219 28.140625 36.199219 18.199219 Z M 36.199219 18.199219 "/>
</clipPath>
<clipPath id="clip11">
  <path d="M 16 0 L 20 0 L 20 4 L 16 4 Z M 16 0 "/>
</clipPath>
<clipPath id="clip12">
  <path d="M 36.199219 18.199219 C 36.199219 8.257812 28.140625 0.199219 18.199219 0.199219 C 8.257812 0.199219 0.199219 8.257812 0.199219 18.199219 C 0.199219 28.140625 8.257812 36.199219 18.199219 36.199219 C 28.140625 36.199219 36.199219 28.140625 36.199219 18.199219 Z M 36.199219 18.199219 "/>
</clipPath>
<clipPath id="clip13">
  <path d="M 0.199219 0.199219 L 36.203125 0.199219 L 36.203125 24 L 0.199219 24 Z M 0.199219 0.199219 "/>
</clipPath>
<clipPath id="clip14">
  <path d="M 36.199219 18.199219 C 36.199219 8.257812 28.140625 0.199219 18.199219 0.199219 C 8.257812 0.199219 0.199219 8.257812 0.199219 18.199219 C 0.199219 28.140625 8.257812 36.199219 18.199219 36.199219 C 28.140625 36.199219 36.199219 28.140625 36.199219 18.199219 Z M 36.199219 18.199219 "/>
</clipPath>
</defs>
<g id="surface1">
<path style="fill:none;stroke-width:0.3985;stroke-linecap:butt;stroke-linejoin:miter;stroke:rgb(0%,0%,0%);stroke-opacity:1;stroke-miterlimit:10;" d="M 36.000219 17.999781 C 36.000219 27.941188 27.941625 35.999781 18.000219 35.999781 C 8.058813 35.999781 0.00021875 27.941188 0.00021875 17.999781 C 0.00021875 8.058375 8.058813 -0.00021875 18.000219 -0.00021875 C 27.941625 -0.00021875 36.000219 8.058375 36.000219 17.999781 Z M 36.000219 17.999781 " transform="matrix(1,0,0,-1,0.199,36.199)"/>
<g clip-path="url(#clip1)" clip-rule="nonzero">
<g clip-path="url(#clip2)" clip-rule="nonzero">
<path style="fill:none;stroke-width:0.19925;stroke-linecap:butt;stroke-linejoin:miter;stroke:rgb(50%,50%,50%);stroke-opacity:1;stroke-miterlimit:10;" d="M 45.005125 12.874781 L 45.005125 17.124781 " transform="matrix(1,0,0,-1,-19.302,33.199)"/>
</g>
</g>
<g clip-path="url(#clip3)" clip-rule="nonzero">
<g clip-path="url(#clip4)" clip-rule="nonzero">
<path style="fill:none;stroke-width:0.19925;stroke-linecap:butt;stroke-linejoin:miter;stroke:rgb(50%,50%,50%);stroke-opacity:1;stroke-miterlimit:10;" d="M 35.376219 28.6365 L 39.630125 28.6365 " transform="matrix(1,0,0,-1,-19.302,33.199)"/>
</g>
</g>
<g clip-path="url(#clip5)" clip-rule="nonzero">
<g clip-path="url(#clip6)" clip-rule="nonzero">
<path style="fill:none;stroke-width:0.3985;stroke-linecap:butt;stroke-linejoin:miter;stroke:rgb(0%,0%,0%);stroke-opacity:1;stroke-miterlimit:10;" d="M 19.501219 14.999781 L 53.512937 14.999781 " transform="matrix(1,0,0,-1,-19.302,33.199)"/>
</g>
</g>
<g clip-path="url(#clip7)" clip-rule="nonzero">
<g clip-path="url(#clip8)" clip-rule="nonzero">
<path style=" stroke:none;fill-rule:nonzero;fill:rgb(0%,0%,0%);fill-opacity:1;" d="M 36.203125 18.199219 L 33.015625 16.605469 L 34.210938 18.199219 L 33.015625 19.792969 "/>
</g>
</g>
<g clip-path="url(#clip9)" clip-rule="nonzero">
<g clip-path="url(#clip10)" clip-rule="nonzero">
<path style="fill:none;stroke-width:0.3985;stroke-linecap:butt;stroke-linejoin:miter;stroke:rgb(0%,0%,0%);stroke-opacity:1;stroke-miterlimit:10;" d="M 37.505125 -3.000219 L 37.505125 31.007594 " transform="matrix(1,0,0,-1,-19.302,33.199)"/>
</g>
</g>
<g clip-path="url(#clip11)" clip-rule="nonzero">
<g clip-path="url(#clip12)" clip-rule="nonzero">
<path style=" stroke:none;fill-rule:nonzero;fill:rgb(0%,0%,0%);fill-opacity:1;" d="M 18.203125 0.199219 L 16.605469 3.386719 L 18.203125 2.191406 L 19.796875 3.386719 "/>
</g>
</g>
<g clip-path="url(#clip13)" clip-rule="nonzero">
<g clip-path="url(#clip14)" clip-rule="nonzero">
<path style="fill:none;stroke-width:0.3985;stroke-linecap:butt;stroke-linejoin:miter;stroke:rgb(100%,0%,0%);stroke-opacity:1;stroke-miterlimit:10;" d="M 0.00121875 83.179469 L 0.759031 81.804469 L 1.516844 80.425563 L 2.27075 79.050563 L 3.786375 76.29275 L 4.544187 74.91775 L 5.302 73.538844 L 6.059812 72.163844 L 6.817625 70.784938 L 7.575437 69.409938 L 9.091062 66.652125 L 9.848875 65.277125 L 10.606687 63.898219 L 11.3645 62.523219 L 12.122312 61.144313 L 12.880125 59.769313 L 13.637937 58.390406 L 14.391844 57.0115 L 15.149656 55.6365 L 15.907469 54.257594 L 16.665281 52.882594 L 18.180906 50.124781 L 18.938719 48.749781 L 19.696531 47.370875 L 20.454344 45.995875 L 21.212156 44.616969 L 21.969969 43.241969 L 23.485594 40.484156 L 24.243406 39.109156 L 25.001219 37.73025 L 25.759031 36.35525 L 26.512937 34.976344 L 27.27075 33.601344 L 28.786375 30.843531 L 29.544187 29.468531 L 30.302 28.089625 L 31.059812 26.714625 L 31.817625 25.335719 L 32.575437 23.960719 L 34.091062 21.202906 L 34.848875 19.827906 L 35.606687 18.449 L 36.3645 17.074 L 37.122312 15.695094 L 37.880125 15.683375 L 38.634031 17.058375 L 39.391844 18.437281 L 40.149656 19.812281 L 40.907469 21.191188 L 41.665281 22.566188 L 43.180906 25.324 L 43.938719 26.699 L 44.696531 28.077906 L 45.454344 29.452906 L 46.212156 30.831813 L 46.969969 32.206813 L 48.485594 34.964625 L 49.243406 36.339625 L 50.001219 37.718531 L 50.755125 39.093531 L 51.512937 40.472438 L 52.27075 41.847438 L 53.786375 44.60525 L 54.544187 45.98025 L 55.302 47.359156 L 56.059812 48.734156 L 57.575437 51.491969 L 58.33325 52.866969 L 59.091062 54.245875 L 59.848875 55.620875 L 60.606687 56.999781 L 61.3645 58.374781 L 62.122312 59.753688 L 62.876219 61.132594 L 63.634031 62.507594 L 64.391844 63.8865 L 65.149656 65.2615 L 65.907469 66.640406 L 66.665281 68.015406 L 68.180906 70.773219 L 68.938719 72.148219 L 69.696531 73.527125 L 70.454344 74.902125 L 71.212156 76.281031 L 71.969969 77.656031 L 73.485594 80.413844 L 74.2395 81.788844 L 74.997312 83.16775 " transform="matrix(1,0,0,-1,-19.302,33.199)"/>
</g>
</g>
</g>
</svg>
