<?xml version="1.0" encoding="UTF-8"?>
<svg xmlns="http://www.w3.org/2000/svg" xmlns:xlink="http://www.w3.org/1999/xlink" width="36.398" height="36.4" viewBox="0 0 36.398 36.4">
<defs>
<clipPath id="clip-0">
<path clip-rule="nonzero" d="M 33 16 L 36.398438 16 L 36.398438 20 L 33 20 Z M 33 16 "/>
</clipPath>
<clipPath id="clip-1">
<path clip-rule="nonzero" d="M 18 1 L 19 1 L 19 36.398438 L 18 36.398438 Z M 18 1 "/>
</clipPath>
<clipPath id="clip-2">
<path clip-rule="nonzero" d="M 1 0.199219 L 35 0.199219 L 35 36.199219 L 1 36.199219 Z M 1 0.199219 "/>
</clipPath>
<clipPath id="clip-3">
<path clip-rule="nonzero" d="M 0 0 L 36.398438 0 L 36.398438 36.398438 L 0 36.398438 Z M 0 0 "/>
</clipPath>
</defs>
<path fill="none" stroke-width="0.3985" stroke-linecap="butt" stroke-linejoin="miter" stroke="rgb(0%, 0%, 0%)" stroke-opacity="1" stroke-miterlimit="10" d="M 0.00021875 18.001781 L 34.004125 18.001781 " transform="matrix(1, 0, 0, -1, 0.199, 36.201)"/>
<g clip-path="url(#clip-0)">
<path fill-rule="nonzero" fill="rgb(0%, 0%, 0%)" fill-opacity="1" d="M 36.199219 18.199219 L 33.007812 16.605469 L 34.203125 18.199219 L 33.007812 19.792969 "/>
</g>
<g clip-path="url(#clip-1)">
<path fill="none" stroke-width="0.3985" stroke-linecap="butt" stroke-linejoin="miter" stroke="rgb(0%, 0%, 0%)" stroke-opacity="1" stroke-miterlimit="10" d="M 18.000219 0.00178125 L 18.000219 34.009594 " transform="matrix(1, 0, 0, -1, 0.199, 36.201)"/>
</g>
<path fill-rule="nonzero" fill="rgb(0%, 0%, 0%)" fill-opacity="1" d="M 18.199219 0.199219 L 16.605469 3.386719 L 18.199219 2.191406 L 19.792969 3.386719 "/>
<g clip-path="url(#clip-2)">
<path fill="none" stroke-width="0.3985" stroke-linecap="butt" stroke-linejoin="miter" stroke="rgb(100%, 0%, 0%)" stroke-opacity="1" stroke-miterlimit="10" d="M 7.250219 3.618969 L 7.39475 3.622875 L 7.539281 3.622875 L 7.683813 3.626781 L 7.828344 3.626781 L 8.261938 3.6385 L 8.402563 3.642406 L 8.691625 3.650219 L 8.836156 3.658031 L 8.980688 3.661938 L 9.703344 3.701 L 10.136938 3.736156 L 10.281469 3.751781 L 10.426 3.7635 L 10.566625 3.783031 L 10.855688 3.822094 L 11.14475 3.868969 L 11.289281 3.896313 L 11.578344 3.958813 L 11.867406 4.036938 L 12.011938 4.079906 L 12.156469 4.130688 L 12.301 4.185375 L 12.445531 4.243969 L 12.590063 4.306469 L 12.734594 4.376781 L 12.875219 4.454906 L 13.01975 4.540844 L 13.164281 4.634594 L 13.308813 4.736156 L 13.453344 4.849438 L 13.597875 4.974438 L 13.742406 5.10725 L 13.886938 5.251781 L 14.031469 5.411938 L 14.176 5.587719 L 14.320531 5.775219 L 14.465063 5.98225 L 14.609594 6.204906 L 14.754125 6.447094 L 14.898656 6.712719 L 15.039281 6.993969 L 15.183813 7.298656 L 15.328344 7.626781 L 15.472875 7.978344 L 15.617406 8.35725 L 15.761938 8.759594 L 15.906469 9.189281 L 16.051 9.646313 L 16.195531 10.126781 L 16.340062 10.634594 L 16.484594 11.16975 L 16.629125 11.73225 L 16.773656 12.318188 L 16.918187 12.923656 L 17.062719 13.556469 L 17.20725 14.204906 L 17.347875 14.868969 L 17.492406 15.548656 L 17.636937 16.240063 L 17.926 17.646313 L 18.070531 18.353344 L 18.215062 19.056469 L 18.359594 19.755688 L 18.504125 20.451 L 18.648656 21.130688 L 18.793187 21.79475 L 18.937719 22.447094 L 19.08225 23.076 L 19.226781 23.685375 L 19.371312 24.267406 L 19.515844 24.829906 L 19.656469 25.365063 L 19.801 25.872875 L 19.945531 26.35725 L 20.090062 26.810375 L 20.234594 27.240063 L 20.379125 27.646313 L 20.523656 28.021313 L 20.668187 28.376781 L 20.812719 28.704906 L 20.95725 29.005688 L 21.101781 29.290844 L 21.246312 29.552563 L 21.390844 29.79475 L 21.535375 30.017406 L 21.679906 30.224438 L 21.820531 30.415844 L 21.965062 30.587719 L 22.109594 30.747875 L 22.254125 30.896313 L 22.398656 31.029125 L 22.543187 31.150219 L 22.687719 31.2635 L 22.83225 31.365063 L 22.976781 31.458813 L 23.121312 31.54475 L 23.265844 31.622875 L 23.410375 31.693188 L 23.554906 31.759594 L 23.699437 31.818188 L 23.843969 31.872875 L 23.9885 31.91975 L 24.129125 31.966625 L 24.273656 32.005688 L 24.562719 32.076 L 24.70725 32.10725 L 24.851781 32.134594 L 25.140844 32.181469 L 25.429906 32.220531 L 25.8635 32.267406 L 26.152562 32.290844 L 26.293187 32.298656 L 26.437719 32.310375 L 26.871312 32.333813 L 27.015844 32.337719 L 27.160375 32.345531 L 27.304906 32.349438 L 27.449437 32.35725 L 27.883031 32.368969 L 28.027562 32.368969 L 28.316625 32.376781 L 28.461156 32.376781 L 28.601781 32.380688 L 28.746312 32.380688 " transform="matrix(1, 0, 0, -1, 0.199, 36.201)"/>
</g>
<g clip-path="url(#clip-3)">
<path fill="none" stroke-width="0.3985" stroke-linecap="butt" stroke-linejoin="miter" stroke="rgb(0%, 0%, 0%)" stroke-opacity="1" stroke-miterlimit="10" d="M 36.000219 18.001781 C 36.000219 27.943188 27.941625 36.001781 18.000219 36.001781 C 8.058813 36.001781 0.00021875 27.943188 0.00021875 18.001781 C 0.00021875 8.060375 8.058813 0.00178125 18.000219 0.00178125 C 27.941625 0.00178125 36.000219 8.060375 36.000219 18.001781 Z M 36.000219 18.001781 " transform="matrix(1, 0, 0, -1, 0.199, 36.201)"/>
</g>
</svg>
