<?xml version="1.0" encoding="UTF-8"?>
<svg xmlns="http://www.w3.org/2000/svg" xmlns:xlink="http://www.w3.org/1999/xlink" width="36.398" height="36.4" viewBox="0 0 36.398 36.4">
<defs>
<clipPath id="clip-0">
<path clip-rule="nonzero" d="M 33 16 L 36.398438 16 L 36.398438 20 L 33 20 Z M 33 16 "/>
</clipPath>
<clipPath id="clip-1">
<path clip-rule="nonzero" d="M 18 1 L 19 1 L 19 36.398438 L 18 36.398438 Z M 18 1 "/>
</clipPath>
<clipPath id="clip-2">
<path clip-rule="nonzero" d="M 0.199219 0.199219 L 36.199219 0.199219 L 36.199219 24 L 0.199219 24 Z M 0.199219 0.199219 "/>
</clipPath>
<clipPath id="clip-3">
<path clip-rule="nonzero" d="M 0 0 L 36.398438 0 L 36.398438 36.398438 L 0 36.398438 Z M 0 0 "/>
</clipPath>
</defs>
<path fill="none" stroke-width="0.3985" stroke-linecap="butt" stroke-linejoin="miter" stroke="rgb(0%, 0%, 0%)" stroke-opacity="1" stroke-miterlimit="10" d="M 0.00021875 18.001781 L 34.004125 18.001781 " transform="matrix(1, 0, 0, -1, 0.199, 36.201)"/>
<g clip-path="url(#clip-0)">
<path fill-rule="nonzero" fill="rgb(0%, 0%, 0%)" fill-opacity="1" d="M 36.199219 18.199219 L 33.007812 16.605469 L 34.203125 18.199219 L 33.007812 19.792969 "/>
</g>
<g clip-path="url(#clip-1)">
<path fill="none" stroke-width="0.3985" stroke-linecap="butt" stroke-linejoin="miter" stroke="rgb(0%, 0%, 0%)" stroke-opacity="1" stroke-miterlimit="10" d="M 18.000219 0.00178125 L 18.000219 34.009594 " transform="matrix(1, 0, 0, -1, 0.199, 36.201)"/>
</g>
<path fill-rule="nonzero" fill="rgb(0%, 0%, 0%)" fill-opacity="1" d="M 18.199219 0.199219 L 16.605469 3.386719 L 18.199219 2.191406 L 19.792969 3.386719 "/>
<g clip-path="url(#clip-2)">
<path fill="none" stroke-width="0.3985" stroke-linecap="butt" stroke-linejoin="miter" stroke="rgb(100%, 0%, 0%)" stroke-opacity="1" stroke-miterlimit="10" d="M 0.035375 18.001781 L 9.558813 18.001781 L 9.703344 18.005688 L 9.992406 18.005688 L 10.281469 18.0135 L 10.426 18.0135 L 10.566625 18.021313 L 10.711156 18.025219 L 11.000219 18.040844 L 11.289281 18.064281 L 11.433813 18.079906 L 11.578344 18.099438 L 11.867406 18.154125 L 12.011938 18.193188 L 12.156469 18.236156 L 12.301 18.286938 L 12.445531 18.349438 L 12.590063 18.423656 L 12.734594 18.509594 L 12.875219 18.611156 L 13.01975 18.728344 L 13.164281 18.861156 L 13.308813 19.017406 L 13.453344 19.193188 L 13.597875 19.396313 L 13.742406 19.622875 L 13.886938 19.876781 L 14.031469 20.158031 L 14.176 20.470531 L 14.320531 20.814281 L 14.465063 21.193188 L 14.609594 21.603344 L 14.754125 22.040844 L 14.898656 22.5135 L 15.039281 23.017406 L 15.183813 23.54475 L 15.328344 24.099438 L 15.472875 24.677563 L 15.617406 25.271313 L 15.761938 25.880688 L 16.195531 27.73225 L 16.340062 28.337719 L 16.484594 28.923656 L 16.629125 29.48225 L 16.773656 30.017406 L 16.918187 30.509594 L 17.062719 30.954906 L 17.20725 31.349438 L 17.347875 31.689281 L 17.492406 31.970531 L 17.636937 32.181469 L 17.781469 32.322094 L 17.926 32.396313 L 18.070531 32.396313 L 18.215062 32.322094 L 18.359594 32.181469 L 18.504125 31.970531 L 18.648656 31.689281 L 18.793187 31.353344 L 18.937719 30.954906 L 19.08225 30.509594 L 19.226781 30.017406 L 19.371312 29.486156 L 19.515844 28.923656 L 19.656469 28.337719 L 19.801 27.73225 L 19.945531 27.118969 L 20.090062 26.497875 L 20.234594 25.884594 L 20.379125 25.275219 L 20.523656 24.677563 L 20.668187 24.103344 L 20.812719 23.54475 L 20.95725 23.017406 L 21.101781 22.5135 L 21.246312 22.040844 L 21.390844 21.603344 L 21.535375 21.193188 L 21.679906 20.818188 L 21.820531 20.474438 L 21.965062 20.158031 L 22.109594 19.876781 L 22.254125 19.622875 L 22.398656 19.396313 L 22.543187 19.193188 L 22.687719 19.017406 L 22.83225 18.861156 L 22.976781 18.728344 L 23.121312 18.611156 L 23.265844 18.509594 L 23.410375 18.423656 L 23.554906 18.349438 L 23.699437 18.286938 L 23.843969 18.236156 L 23.9885 18.193188 L 24.129125 18.154125 L 24.418187 18.099438 L 24.562719 18.079906 L 24.70725 18.064281 L 24.996312 18.040844 L 25.285375 18.025219 L 25.429906 18.021313 L 25.574437 18.0135 L 25.718969 18.0135 L 26.008031 18.005688 L 26.293187 18.005688 L 26.437719 18.001781 L 35.961156 18.001781 " transform="matrix(1, 0, 0, -1, 0.199, 36.201)"/>
</g>
<g clip-path="url(#clip-3)">
<path fill="none" stroke-width="0.3985" stroke-linecap="butt" stroke-linejoin="miter" stroke="rgb(0%, 0%, 0%)" stroke-opacity="1" stroke-miterlimit="10" d="M 36.000219 18.001781 C 36.000219 27.943188 27.941625 36.001781 18.000219 36.001781 C 8.058813 36.001781 0.00021875 27.943188 0.00021875 18.001781 C 0.00021875 8.060375 8.058813 0.00178125 18.000219 0.00178125 C 27.941625 0.00178125 36.000219 8.060375 36.000219 18.001781 Z M 36.000219 18.001781 " transform="matrix(1, 0, 0, -1, 0.199, 36.201)"/>
</g>
</svg>
