<?xml version="1.0" encoding="UTF-8"?>
<svg xmlns="http://www.w3.org/2000/svg" width="36.398pt" height="36.398pt" viewBox="0 0 36.398 36.398" version="1.1">
<defs>
<clipPath id="clip1">
  <path d="M 25 15 L 26 15 L 26 21 L 25 21 Z M 25 15 "/>
</clipPath>
<clipPath id="clip2">
  <path d="M 36.199219 18.199219 C 36.199219 8.257812 28.140625 0.199219 18.199219 0.199219 C 8.257812 0.199219 0.199219 8.257812 0.199219 18.199219 C 0.199219 28.140625 8.257812 36.199219 18.199219 36.199219 C 28.140625 36.199219 36.199219 28.140625 36.199219 18.199219 Z M 36.199219 18.199219 "/>
</clipPath>
<clipPath id="clip3">
  <path d="M 15 4 L 21 4 L 21 5 L 15 5 Z M 15 4 "/>
</clipPath>
<clipPath id="clip4">
  <path d="M 36.199219 18.199219 C 36.199219 8.257812 28.140625 0.199219 18.199219 0.199219 C 8.257812 0.199219 0.199219 8.257812 0.199219 18.199219 C 0.199219 28.140625 8.257812 36.199219 18.199219 36.199219 C 28.140625 36.199219 36.199219 28.140625 36.199219 18.199219 Z M 36.199219 18.199219 "/>
</clipPath>
<clipPath id="clip5">
  <path d="M 0 18 L 35 18 L 35 19 L 0 19 Z M 0 18 "/>
</clipPath>
<clipPath id="clip6">
  <path d="M 36.199219 18.199219 C 36.199219 8.257812 28.140625 0.199219 18.199219 0.199219 C 8.257812 0.199219 0.199219 8.257812 0.199219 18.199219 C 0.199219 28.140625 8.257812 36.199219 18.199219 36.199219 C 28.140625 36.199219 36.199219 28.140625 36.199219 18.199219 Z M 36.199219 18.199219 "/>
</clipPath>
<clipPath id="clip7">
  <path d="M 33 16 L 36.398438 16 L 36.398438 20 L 33 20 Z M 33 16 "/>
</clipPath>
<clipPath id="clip8">
  <path d="M 36.199219 18.199219 C 36.199219 8.257812 28.140625 0.199219 18.199219 0.199219 C 8.257812 0.199219 0.199219 8.257812 0.199219 18.199219 C 0.199219 28.140625 8.257812 36.199219 18.199219 36.199219 C 28.140625 36.199219 36.199219 28.140625 36.199219 18.199219 Z M 36.199219 18.199219 "/>
</clipPath>
<clipPath id="clip9">
  <path d="M 18 1 L 19 1 L 19 36.398438 L 18 36.398438 Z M 18 1 "/>
</clipPath>
<clipPath id="clip10">
  <path d="M 36.199219 18.199219 C 36.199219 8.257812 28.140625 0.199219 18.199219 0.199219 C 8.257812 0.199219 0.199219 8.257812 0.199219 18.199219 C 0.199219 28.140625 8.257812 36.199219 18.199219 36.199219 C 28.140625 36.199219 36.199219 28.140625 36.199219 18.199219 Z M 36.199219 18.199219 "/>
</clipPath>
<clipPath id="clip11">
  <path d="M 16 0 L 20 0 L 20 4 L 16 4 Z M 16 0 "/>
</clipPath>
<clipPath id="clip12">
  <path d="M 36.199219 18.199219 C 36.199219 8.257812 28.140625 0.199219 18.199219 0.199219 C 8.257812 0.199219 0.199219 8.257812 0.199219 18.199219 C 0.199219 28.140625 8.257812 36.199219 18.199219 36.199219 C 28.140625 36.199219 36.199219 28.140625 36.199219 18.199219 Z M 36.199219 18.199219 "/>
</clipPath>
<clipPath id="clip13">
  <path d="M 0.199219 0.199219 L 36.203125 0.199219 L 36.203125 36.199219 L 0.199219 36.199219 Z M 0.199219 0.199219 "/>
</clipPath>
<clipPath id="clip14">
  <path d="M 36.199219 18.199219 C 36.199219 8.257812 28.140625 0.199219 18.199219 0.199219 C 8.257812 0.199219 0.199219 8.257812 0.199219 18.199219 C 0.199219 28.140625 8.257812 36.199219 18.199219 36.199219 C 28.140625 36.199219 36.199219 28.140625 36.199219 18.199219 Z M 36.199219 18.199219 "/>
</clipPath>
</defs>
<g id="surface1">
<path style="fill:none;stroke-width:0.3985;stroke-linecap:butt;stroke-linejoin:miter;stroke:rgb(0%,0%,0%);stroke-opacity:1;stroke-miterlimit:10;" d="M 36.000219 17.999781 C 36.000219 27.941188 27.941625 35.999781 18.000219 35.999781 C 8.058813 35.999781 0.00021875 27.941188 0.00021875 17.999781 C 0.00021875 8.058375 8.058813 -0.00021875 18.000219 -0.00021875 C 27.941625 -0.00021875 36.000219 8.058375 36.000219 17.999781 Z M 36.000219 17.999781 " transform="matrix(1,0,0,-1,0.199,36.199)"/>
<g clip-path="url(#clip1)" clip-rule="nonzero">
<g clip-path="url(#clip2)" clip-rule="nonzero">
<path style="fill:none;stroke-width:0.19925;stroke-linecap:butt;stroke-linejoin:miter;stroke:rgb(50%,50%,50%);stroke-opacity:1;stroke-miterlimit:10;" d="M 45.005125 31.964781 L 45.005125 36.214781 " transform="matrix(1,0,0,-1,-19.302,52.289)"/>
</g>
</g>
<g clip-path="url(#clip3)" clip-rule="nonzero">
<g clip-path="url(#clip4)" clip-rule="nonzero">
<path style="fill:none;stroke-width:0.19925;stroke-linecap:butt;stroke-linejoin:miter;stroke:rgb(50%,50%,50%);stroke-opacity:1;stroke-miterlimit:10;" d="M 35.376219 47.7265 L 39.630125 47.7265 " transform="matrix(1,0,0,-1,-19.302,52.289)"/>
</g>
</g>
<g clip-path="url(#clip5)" clip-rule="nonzero">
<g clip-path="url(#clip6)" clip-rule="nonzero">
<path style="fill:none;stroke-width:0.3985;stroke-linecap:butt;stroke-linejoin:miter;stroke:rgb(0%,0%,0%);stroke-opacity:1;stroke-miterlimit:10;" d="M 19.501219 34.089781 L 53.512937 34.089781 " transform="matrix(1,0,0,-1,-19.302,52.289)"/>
</g>
</g>
<g clip-path="url(#clip7)" clip-rule="nonzero">
<g clip-path="url(#clip8)" clip-rule="nonzero">
<path style=" stroke:none;fill-rule:nonzero;fill:rgb(0%,0%,0%);fill-opacity:1;" d="M 36.203125 18.199219 L 33.015625 16.605469 L 34.210938 18.199219 L 33.015625 19.792969 "/>
</g>
</g>
<g clip-path="url(#clip9)" clip-rule="nonzero">
<g clip-path="url(#clip10)" clip-rule="nonzero">
<path style="fill:none;stroke-width:0.3985;stroke-linecap:butt;stroke-linejoin:miter;stroke:rgb(0%,0%,0%);stroke-opacity:1;stroke-miterlimit:10;" d="M 37.505125 16.089781 L 37.505125 50.097594 " transform="matrix(1,0,0,-1,-19.302,52.289)"/>
</g>
</g>
<g clip-path="url(#clip11)" clip-rule="nonzero">
<g clip-path="url(#clip12)" clip-rule="nonzero">
<path style=" stroke:none;fill-rule:nonzero;fill:rgb(0%,0%,0%);fill-opacity:1;" d="M 18.203125 0.199219 L 16.605469 3.386719 L 18.203125 2.191406 L 19.796875 3.386719 "/>
</g>
</g>
<g clip-path="url(#clip13)" clip-rule="nonzero">
<g clip-path="url(#clip14)" clip-rule="nonzero">
<path style="fill:none;stroke-width:0.3985;stroke-linecap:butt;stroke-linejoin:miter;stroke:rgb(100%,0%,0%);stroke-opacity:1;stroke-miterlimit:10;" d="M 0.00121875 -0.0000625 L 0.759031 0.687438 L 1.516844 1.378844 L 2.27075 2.066344 L 3.786375 3.441344 L 4.544187 4.13275 L 6.059812 5.50775 L 6.817625 6.199156 L 9.091062 8.261656 L 9.848875 8.953063 L 11.3645 10.328063 L 12.122312 11.019469 L 13.637937 12.394469 L 14.391844 13.081969 L 15.149656 13.773375 L 16.665281 15.148375 L 17.423094 15.839781 L 18.938719 17.214781 L 19.696531 17.906188 L 21.969969 19.968688 L 22.727781 20.660094 L 24.243406 22.035094 L 25.001219 22.7265 L 25.759031 23.414 L 26.512937 24.1015 L 27.27075 24.789 L 28.028562 25.480406 L 29.544187 26.855406 L 30.302 27.546813 L 32.575437 29.609313 L 33.33325 30.300719 L 34.848875 31.675719 L 35.606687 32.367125 L 37.880125 34.429625 L 38.634031 35.121031 L 40.149656 36.496031 L 40.907469 37.187438 L 43.180906 39.249938 L 43.938719 39.941344 L 45.454344 41.316344 L 46.212156 42.00775 L 48.485594 44.07025 L 49.243406 44.761656 L 50.001219 45.449156 L 50.755125 46.136656 L 51.512937 46.828063 L 53.786375 48.890563 L 54.544187 49.581969 L 56.059812 50.956969 L 56.817625 51.648375 L 58.33325 53.023375 L 59.091062 53.714781 L 61.3645 55.777281 L 62.122312 56.468688 L 62.876219 57.156188 L 63.634031 57.843688 L 64.391844 58.535094 L 66.665281 60.597594 L 67.423094 61.289 L 68.938719 62.664 L 69.696531 63.355406 L 71.969969 65.417906 L 72.727781 66.109313 L 73.485594 66.796813 L 74.2395 67.484313 L 74.997312 68.175719 " transform="matrix(1,0,0,-1,-19.302,52.289)"/>
</g>
</g>
</g>
</svg>
