<?xml version="1.0" encoding="UTF-8"?>
<svg xmlns="http://www.w3.org/2000/svg" xmlns:xlink="http://www.w3.org/1999/xlink" width="36.398" height="36.4" viewBox="0 0 36.398 36.4">
<defs>
<clipPath id="clip-0">
<path clip-rule="nonzero" d="M 33 16 L 36.398438 16 L 36.398438 20 L 33 20 Z M 33 16 "/>
</clipPath>
<clipPath id="clip-1">
<path clip-rule="nonzero" d="M 18 1 L 19 1 L 19 36.398438 L 18 36.398438 Z M 18 1 "/>
</clipPath>
<clipPath id="clip-2">
<path clip-rule="nonzero" d="M 0.199219 0.199219 L 36.199219 0.199219 L 36.199219 36.199219 L 0.199219 36.199219 Z M 0.199219 0.199219 "/>
</clipPath>
<clipPath id="clip-3">
<path clip-rule="nonzero" d="M 0 0 L 36.398438 0 L 36.398438 36.398438 L 0 36.398438 Z M 0 0 "/>
</clipPath>
</defs>
<path fill="none" stroke-width="0.3985" stroke-linecap="butt" stroke-linejoin="miter" stroke="rgb(0%, 0%, 0%)" stroke-opacity="1" stroke-miterlimit="10" d="M 0.00021875 18.001781 L 34.004125 18.001781 " transform="matrix(1, 0, 0, -1, 0.199, 36.201)"/>
<g clip-path="url(#clip-0)">
<path fill-rule="nonzero" fill="rgb(0%, 0%, 0%)" fill-opacity="1" d="M 36.199219 18.199219 L 33.007812 16.605469 L 34.203125 18.199219 L 33.007812 19.792969 "/>
</g>
<g clip-path="url(#clip-1)">
<path fill="none" stroke-width="0.3985" stroke-linecap="butt" stroke-linejoin="miter" stroke="rgb(0%, 0%, 0%)" stroke-opacity="1" stroke-miterlimit="10" d="M 18.000219 0.00178125 L 18.000219 34.009594 " transform="matrix(1, 0, 0, -1, 0.199, 36.201)"/>
</g>
<path fill-rule="nonzero" fill="rgb(0%, 0%, 0%)" fill-opacity="1" d="M 18.199219 0.199219 L 16.605469 3.386719 L 18.199219 2.191406 L 19.792969 3.386719 "/>
<g clip-path="url(#clip-2)">
<path fill="none" stroke-width="0.3985" stroke-linecap="butt" stroke-linejoin="miter" stroke="rgb(100%, 0%, 0%)" stroke-opacity="1" stroke-miterlimit="10" d="M 2.343969 26.755688 L 2.4885 26.349438 L 2.633031 25.935375 L 2.777563 25.509594 L 2.922094 25.076 L 3.066625 24.630688 L 3.211156 24.181469 L 3.355688 23.720531 L 3.500219 23.255688 L 3.64475 22.783031 L 3.785375 22.306469 L 3.929906 21.822094 L 4.074438 21.333813 L 4.3635 20.349438 L 4.652563 19.349438 L 4.797094 18.845531 L 4.941625 18.345531 L 5.375219 16.833813 L 5.664281 15.833813 L 5.808813 15.337719 L 5.953344 14.845531 L 6.093969 14.353344 L 6.2385 13.868969 L 6.383031 13.3885 L 6.527563 12.915844 L 6.672094 12.447094 L 6.816625 11.986156 L 6.961156 11.533031 L 7.105688 11.087719 L 7.250219 10.650219 L 7.39475 10.220531 L 7.539281 9.802563 L 7.683813 9.392406 L 7.828344 8.993969 L 7.972875 8.60725 L 8.117406 8.23225 L 8.261938 7.868969 L 8.402563 7.517406 L 8.547094 7.177563 L 8.691625 6.853344 L 8.836156 6.540844 L 8.980688 6.240063 L 9.125219 5.958813 L 9.26975 5.689281 L 9.414281 5.435375 L 9.558813 5.197094 L 9.703344 4.974438 L 9.847875 4.767406 L 9.992406 4.576 L 10.136938 4.404125 L 10.281469 4.247875 L 10.426 4.10725 L 10.566625 3.98225 L 10.711156 3.876781 L 10.855688 3.786938 L 11.000219 3.712719 L 11.14475 3.658031 L 11.289281 3.622875 L 11.433813 3.603344 L 11.578344 3.603344 L 11.722875 3.618969 L 11.867406 3.650219 L 12.011938 3.701 L 12.156469 3.771313 L 12.301 3.85725 L 12.445531 3.962719 L 12.590063 4.079906 L 12.734594 4.220531 L 12.875219 4.372875 L 13.01975 4.54475 L 13.164281 4.73225 L 13.308813 4.935375 L 13.453344 5.154125 L 13.597875 5.392406 L 13.742406 5.642406 L 13.886938 5.908031 L 14.031469 6.189281 L 14.176 6.48225 L 14.320531 6.79475 L 14.465063 7.115063 L 14.609594 7.451 L 14.754125 7.802563 L 14.898656 8.161938 L 15.039281 8.536938 L 15.183813 8.923656 L 15.328344 9.318188 L 15.472875 9.728344 L 15.617406 10.142406 L 15.761938 10.572094 L 15.906469 11.005688 L 16.051 11.451 L 16.195531 11.904125 L 16.340062 12.365063 L 16.484594 12.829906 L 16.629125 13.302563 L 16.773656 13.783031 L 16.918187 14.267406 L 17.062719 14.755688 L 17.20725 15.247875 L 17.347875 15.743969 L 17.781469 17.243969 L 18.359594 19.259594 L 18.504125 19.759594 L 18.648656 20.255688 L 18.793187 20.755688 L 18.937719 21.247875 L 19.08225 21.736156 L 19.226781 22.220531 L 19.371312 22.697094 L 19.515844 23.16975 L 19.656469 23.6385 L 19.801 24.099438 L 19.945531 24.548656 L 20.090062 24.993969 L 20.234594 25.431469 L 20.379125 25.85725 L 20.523656 26.275219 L 20.668187 26.681469 L 20.812719 27.079906 L 20.95725 27.462719 L 21.101781 27.837719 L 21.246312 28.201 L 21.390844 28.548656 L 21.535375 28.884594 L 21.679906 29.208813 L 21.820531 29.517406 L 21.965062 29.814281 L 22.109594 30.091625 L 22.254125 30.361156 L 22.398656 30.611156 L 22.543187 30.845531 L 22.687719 31.064281 L 22.83225 31.271313 L 22.976781 31.458813 L 23.121312 31.626781 L 23.265844 31.783031 L 23.410375 31.91975 L 23.554906 32.040844 L 23.699437 32.146313 L 23.843969 32.228344 L 23.9885 32.298656 L 24.129125 32.349438 L 24.273656 32.384594 L 24.418187 32.400219 L 24.562719 32.396313 L 24.70725 32.380688 L 24.851781 32.341625 L 24.996312 32.286938 L 25.140844 32.216625 L 25.285375 32.126781 L 25.429906 32.021313 L 25.574437 31.896313 L 25.718969 31.755688 L 25.8635 31.599438 L 26.008031 31.423656 L 26.152562 31.236156 L 26.293187 31.029125 L 26.437719 30.806469 L 26.58225 30.568188 L 26.726781 30.314281 L 26.871312 30.04475 L 27.015844 29.759594 L 27.160375 29.462719 L 27.304906 29.150219 L 27.449437 28.826 L 27.593969 28.486156 L 27.7385 28.134594 L 27.883031 27.771313 L 28.027562 27.396313 L 28.172094 27.009594 L 28.316625 26.611156 L 28.461156 26.201 L 28.601781 25.783031 L 28.746312 25.353344 L 28.890844 24.915844 L 29.035375 24.470531 L 29.179906 24.017406 L 29.324437 23.556469 L 29.468969 23.087719 L 29.6135 22.615063 L 29.758031 22.134594 L 29.902562 21.650219 L 30.191625 20.665844 L 30.336156 20.16975 L 30.625219 19.16975 L 30.76975 18.665844 L 30.910375 18.161938 L 31.054906 17.658031 L 31.199437 17.158031 L 31.343969 16.654125 L 31.633031 15.654125 L 31.922094 14.66975 L 32.066625 14.181469 L 32.211156 13.697094 L 32.355688 13.220531 L 32.500219 12.747875 L 32.64475 12.283031 L 32.789281 11.822094 L 32.933813 11.372875 L 33.074438 10.927563 L 33.218969 10.493969 L 33.3635 10.068188 L 33.508031 9.654125 L 33.652563 9.247875 " transform="matrix(1, 0, 0, -1, 0.199, 36.201)"/>
</g>
<g clip-path="url(#clip-3)">
<path fill="none" stroke-width="0.3985" stroke-linecap="butt" stroke-linejoin="miter" stroke="rgb(0%, 0%, 0%)" stroke-opacity="1" stroke-miterlimit="10" d="M 36.000219 18.001781 C 36.000219 27.943188 27.941625 36.001781 18.000219 36.001781 C 8.058813 36.001781 0.00021875 27.943188 0.00021875 18.001781 C 0.00021875 8.060375 8.058813 0.00178125 18.000219 0.00178125 C 27.941625 0.00178125 36.000219 8.060375 36.000219 18.001781 Z M 36.000219 18.001781 " transform="matrix(1, 0, 0, -1, 0.199, 36.201)"/>
</g>
</svg>
