<?xml version="1.0" encoding="UTF-8"?>
<svg xmlns="http://www.w3.org/2000/svg" xmlns:xlink="http://www.w3.org/1999/xlink" width="36.398" height="36.4" viewBox="0 0 36.398 36.4">
<defs>
<clipPath id="clip-0">
<path clip-rule="nonzero" d="M 33 16 L 36.398438 16 L 36.398438 20 L 33 20 Z M 33 16 "/>
</clipPath>
<clipPath id="clip-1">
<path clip-rule="nonzero" d="M 18 1 L 19 1 L 19 36.398438 L 18 36.398438 Z M 18 1 "/>
</clipPath>
<clipPath id="clip-2">
<path clip-rule="nonzero" d="M 4 0.199219 L 32 0.199219 L 32 24 L 4 24 Z M 4 0.199219 "/>
</clipPath>
<clipPath id="clip-3">
<path clip-rule="nonzero" d="M 0 0 L 36.398438 0 L 36.398438 36.398438 L 0 36.398438 Z M 0 0 "/>
</clipPath>
</defs>
<path fill="none" stroke-width="0.3985" stroke-linecap="butt" stroke-linejoin="miter" stroke="rgb(0%, 0%, 0%)" stroke-opacity="1" stroke-miterlimit="10" d="M 0.00021875 18.001781 L 34.004125 18.001781 " transform="matrix(1, 0, 0, -1, 0.199, 36.201)"/>
<g clip-path="url(#clip-0)">
<path fill-rule="nonzero" fill="rgb(0%, 0%, 0%)" fill-opacity="1" d="M 36.199219 18.199219 L 33.007812 16.605469 L 34.203125 18.199219 L 33.007812 19.792969 "/>
</g>
<g clip-path="url(#clip-1)">
<path fill="none" stroke-width="0.3985" stroke-linecap="butt" stroke-linejoin="miter" stroke="rgb(0%, 0%, 0%)" stroke-opacity="1" stroke-miterlimit="10" d="M 18.000219 0.00178125 L 18.000219 34.009594 " transform="matrix(1, 0, 0, -1, 0.199, 36.201)"/>
</g>
<path fill-rule="nonzero" fill="rgb(0%, 0%, 0%)" fill-opacity="1" d="M 18.199219 0.199219 L 16.605469 3.386719 L 18.199219 2.191406 L 19.792969 3.386719 "/>
<g clip-path="url(#clip-2)">
<path fill="none" stroke-width="0.3985" stroke-linecap="butt" stroke-linejoin="miter" stroke="rgb(100%, 0%, 0%)" stroke-opacity="1" stroke-miterlimit="10" d="M 10.426 33.943188 L 10.566625 33.341625 L 10.711156 32.751781 L 10.855688 32.173656 L 11.000219 31.60725 L 11.14475 31.048656 L 11.289281 30.505688 L 11.433813 29.974438 L 11.578344 29.454906 L 11.722875 28.947094 L 11.867406 28.447094 L 12.011938 27.962719 L 12.156469 27.486156 L 12.301 27.025219 L 12.445531 26.572094 L 12.590063 26.134594 L 12.734594 25.704906 L 12.875219 25.290844 L 13.01975 24.884594 L 13.164281 24.490063 L 13.308813 24.111156 L 13.453344 23.740063 L 13.597875 23.380688 L 13.742406 23.033031 L 13.886938 22.697094 L 14.031469 22.376781 L 14.176 22.064281 L 14.320531 21.7635 L 14.465063 21.474438 L 14.609594 21.197094 L 14.754125 20.927563 L 14.898656 20.673656 L 15.039281 20.431469 L 15.183813 20.201 L 15.328344 19.98225 L 15.472875 19.771313 L 15.617406 19.576 L 15.761938 19.392406 L 15.906469 19.216625 L 16.051 19.056469 L 16.195531 18.904125 L 16.340062 18.767406 L 16.484594 18.6385 L 16.629125 18.521313 L 16.773656 18.41975 L 16.918187 18.326 L 17.062719 18.243969 L 17.20725 18.177563 L 17.347875 18.118969 L 17.492406 18.072094 L 17.636937 18.036938 L 17.781469 18.0135 L 17.926 18.001781 L 18.070531 18.001781 L 18.215062 18.0135 L 18.359594 18.036938 L 18.504125 18.072094 L 18.648656 18.118969 L 18.793187 18.177563 L 18.937719 18.243969 L 19.08225 18.326 L 19.226781 18.41975 L 19.371312 18.521313 L 19.515844 18.6385 L 19.656469 18.767406 L 19.801 18.904125 L 19.945531 19.056469 L 20.090062 19.216625 L 20.234594 19.3885 L 20.379125 19.576 L 20.523656 19.771313 L 20.668187 19.978344 L 20.812719 20.201 L 20.95725 20.431469 L 21.101781 20.673656 L 21.246312 20.927563 L 21.390844 21.193188 L 21.535375 21.470531 L 21.679906 21.759594 L 21.820531 22.060375 L 21.965062 22.372875 L 22.109594 22.697094 L 22.254125 23.033031 L 22.398656 23.380688 L 22.543187 23.740063 L 22.687719 24.111156 L 22.83225 24.490063 L 22.976781 24.884594 L 23.121312 25.290844 L 23.265844 25.704906 L 23.410375 26.134594 L 23.554906 26.572094 L 23.699437 27.025219 L 23.843969 27.486156 L 23.9885 27.962719 L 24.129125 28.447094 L 24.273656 28.943188 L 24.418187 29.454906 L 24.562719 29.974438 L 24.70725 30.505688 L 24.851781 31.048656 L 24.996312 31.603344 L 25.140844 32.16975 L 25.285375 32.747875 L 25.429906 33.337719 L 25.574437 33.939281 " transform="matrix(1, 0, 0, -1, 0.199, 36.201)"/>
</g>
<g clip-path="url(#clip-3)">
<path fill="none" stroke-width="0.3985" stroke-linecap="butt" stroke-linejoin="miter" stroke="rgb(0%, 0%, 0%)" stroke-opacity="1" stroke-miterlimit="10" d="M 36.000219 18.001781 C 36.000219 27.943188 27.941625 36.001781 18.000219 36.001781 C 8.058813 36.001781 0.00021875 27.943188 0.00021875 18.001781 C 0.00021875 8.060375 8.058813 0.00178125 18.000219 0.00178125 C 27.941625 0.00178125 36.000219 8.060375 36.000219 18.001781 Z M 36.000219 18.001781 " transform="matrix(1, 0, 0, -1, 0.199, 36.201)"/>
</g>
</svg>
