<?xml version="1.0" encoding="UTF-8"?>
<svg xmlns="http://www.w3.org/2000/svg" xmlns:xlink="http://www.w3.org/1999/xlink" width="36.398" height="36.4" viewBox="0 0 36.398 36.4">
<defs>
<clipPath id="clip-0">
<path clip-rule="nonzero" d="M 33 16 L 36.398438 16 L 36.398438 20 L 33 20 Z M 33 16 "/>
</clipPath>
<clipPath id="clip-1">
<path clip-rule="nonzero" d="M 18 1 L 19 1 L 19 36.398438 L 18 36.398438 Z M 18 1 "/>
</clipPath>
<clipPath id="clip-2">
<path clip-rule="nonzero" d="M 12 0.199219 L 33 0.199219 L 33 23 L 12 23 Z M 12 0.199219 "/>
</clipPath>
<clipPath id="clip-3">
<path clip-rule="nonzero" d="M 0 0 L 36.398438 0 L 36.398438 36.398438 L 0 36.398438 Z M 0 0 "/>
</clipPath>
</defs>
<path fill="none" stroke-width="0.3985" stroke-linecap="butt" stroke-linejoin="miter" stroke="rgb(0%, 0%, 0%)" stroke-opacity="1" stroke-miterlimit="10" d="M 0.00021875 18.001781 L 34.004125 18.001781 " transform="matrix(1, 0, 0, -1, 0.199, 36.201)"/>
<g clip-path="url(#clip-0)">
<path fill-rule="nonzero" fill="rgb(0%, 0%, 0%)" fill-opacity="1" d="M 36.199219 18.199219 L 33.007812 16.605469 L 34.203125 18.199219 L 33.007812 19.792969 "/>
</g>
<g clip-path="url(#clip-1)">
<path fill="none" stroke-width="0.3985" stroke-linecap="butt" stroke-linejoin="miter" stroke="rgb(0%, 0%, 0%)" stroke-opacity="1" stroke-miterlimit="10" d="M 18.000219 0.00178125 L 18.000219 34.009594 " transform="matrix(1, 0, 0, -1, 0.199, 36.201)"/>
</g>
<path fill-rule="nonzero" fill="rgb(0%, 0%, 0%)" fill-opacity="1" d="M 18.199219 0.199219 L 16.605469 3.386719 L 18.199219 2.191406 L 19.792969 3.386719 "/>
<g clip-path="url(#clip-2)">
<path fill="none" stroke-width="0.3985" stroke-linecap="butt" stroke-linejoin="miter" stroke="rgb(100%, 0%, 0%)" stroke-opacity="1" stroke-miterlimit="10" d="M 18.070531 19.439281 L 18.215062 20.497875 L 18.359594 21.224438 L 18.504125 21.814281 L 18.648656 22.326 L 18.793187 22.783031 L 18.937719 23.197094 L 19.08225 23.583813 L 19.226781 23.943188 L 19.371312 24.283031 L 19.515844 24.60725 L 19.656469 24.915844 L 19.801 25.208813 L 19.945531 25.490063 L 20.090062 25.7635 L 20.234594 26.025219 L 20.379125 26.283031 L 20.523656 26.529125 L 20.668187 26.767406 L 20.812719 27.001781 L 20.95725 27.23225 L 21.101781 27.454906 L 21.390844 27.884594 L 21.535375 28.091625 L 21.679906 28.29475 L 21.820531 28.493969 L 21.965062 28.693188 L 22.109594 28.884594 L 22.398656 29.259594 L 22.543187 29.443188 L 22.687719 29.622875 L 22.976781 29.974438 L 23.265844 30.318188 L 23.410375 30.486156 L 23.699437 30.814281 L 23.9885 31.134594 L 24.129125 31.290844 L 24.273656 31.447094 L 24.70725 31.904125 L 24.851781 32.052563 L 24.996312 32.197094 L 25.140844 32.345531 L 25.285375 32.486156 L 25.429906 32.630688 L 25.718969 32.911938 L 25.8635 33.048656 L 26.008031 33.189281 L 26.152562 33.326 L 26.293187 33.458813 L 26.58225 33.724438 " transform="matrix(1, 0, 0, -1, 0.199, 36.201)"/>
</g>
<g clip-path="url(#clip-3)">
<path fill="none" stroke-width="0.3985" stroke-linecap="butt" stroke-linejoin="miter" stroke="rgb(0%, 0%, 0%)" stroke-opacity="1" stroke-miterlimit="10" d="M 36.000219 18.001781 C 36.000219 27.943188 27.941625 36.001781 18.000219 36.001781 C 8.058813 36.001781 0.00021875 27.943188 0.00021875 18.001781 C 0.00021875 8.060375 8.058813 0.00178125 18.000219 0.00178125 C 27.941625 0.00178125 36.000219 8.060375 36.000219 18.001781 Z M 36.000219 18.001781 " transform="matrix(1, 0, 0, -1, 0.199, 36.201)"/>
</g>
</svg>
