<?xml version="1.0" encoding="UTF-8"?>
<svg xmlns="http://www.w3.org/2000/svg" xmlns:xlink="http://www.w3.org/1999/xlink" width="36.398" height="36.4" viewBox="0 0 36.398 36.4">
<defs>
<clipPath id="clip-0">
<path clip-rule="nonzero" d="M 33 16 L 36.398438 16 L 36.398438 20 L 33 20 Z M 33 16 "/>
</clipPath>
<clipPath id="clip-1">
<path clip-rule="nonzero" d="M 18 1 L 19 1 L 19 36.398438 L 18 36.398438 Z M 18 1 "/>
</clipPath>
<clipPath id="clip-2">
<path clip-rule="nonzero" d="M 0.199219 0.199219 L 35 0.199219 L 35 24 L 0.199219 24 Z M 0.199219 0.199219 "/>
</clipPath>
<clipPath id="clip-3">
<path clip-rule="nonzero" d="M 0 0 L 36.398438 0 L 36.398438 36.398438 L 0 36.398438 Z M 0 0 "/>
</clipPath>
</defs>
<path fill="none" stroke-width="0.3985" stroke-linecap="butt" stroke-linejoin="miter" stroke="rgb(0%, 0%, 0%)" stroke-opacity="1" stroke-miterlimit="10" d="M 0.00021875 18.001781 L 34.004125 18.001781 " transform="matrix(1, 0, 0, -1, 0.199, 36.201)"/>
<g clip-path="url(#clip-0)">
<path fill-rule="nonzero" fill="rgb(0%, 0%, 0%)" fill-opacity="1" d="M 36.199219 18.199219 L 33.007812 16.605469 L 34.203125 18.199219 L 33.007812 19.792969 "/>
</g>
<g clip-path="url(#clip-1)">
<path fill="none" stroke-width="0.3985" stroke-linecap="butt" stroke-linejoin="miter" stroke="rgb(0%, 0%, 0%)" stroke-opacity="1" stroke-miterlimit="10" d="M 18.000219 0.00178125 L 18.000219 34.009594 " transform="matrix(1, 0, 0, -1, 0.199, 36.201)"/>
</g>
<path fill-rule="nonzero" fill="rgb(0%, 0%, 0%)" fill-opacity="1" d="M 18.199219 0.199219 L 16.605469 3.386719 L 18.199219 2.191406 L 19.792969 3.386719 "/>
<g clip-path="url(#clip-2)">
<path fill="none" stroke-width="0.3985" stroke-linecap="butt" stroke-linejoin="miter" stroke="rgb(100%, 0%, 0%)" stroke-opacity="1" stroke-miterlimit="10" d="M 0.035375 18.001781 L 5.375219 18.001781 L 5.51975 18.005688 L 6.672094 18.005688 L 6.816625 18.009594 L 7.250219 18.009594 L 7.39475 18.0135 L 7.828344 18.0135 L 7.972875 18.017406 L 8.117406 18.017406 L 8.261938 18.021313 L 8.402563 18.021313 L 8.547094 18.025219 L 8.691625 18.025219 L 9.125219 18.036938 L 9.26975 18.036938 L 9.414281 18.040844 L 9.558813 18.048656 L 9.847875 18.056469 L 9.992406 18.064281 L 10.136938 18.068188 L 10.426 18.083813 L 10.566625 18.091625 L 10.711156 18.103344 L 10.855688 18.111156 L 11.14475 18.134594 L 11.578344 18.181469 L 12.011938 18.240063 L 12.156469 18.267406 L 12.301 18.290844 L 12.590063 18.353344 L 12.734594 18.3885 L 12.875219 18.427563 L 13.01975 18.470531 L 13.164281 18.517406 L 13.308813 18.568188 L 13.597875 18.685375 L 13.886938 18.826 L 14.031469 18.908031 L 14.176 18.993969 L 14.320531 19.087719 L 14.465063 19.193188 L 14.609594 19.302563 L 14.754125 19.423656 L 14.898656 19.556469 L 15.039281 19.697094 L 15.183813 19.849438 L 15.328344 20.0135 L 15.472875 20.189281 L 15.617406 20.380688 L 15.761938 20.579906 L 15.906469 20.79475 L 16.051 21.025219 L 16.195531 21.2635 L 16.340062 21.517406 L 16.484594 21.786938 L 16.629125 22.068188 L 16.773656 22.361156 L 16.918187 22.661938 L 17.062719 22.978344 L 17.20725 23.302563 L 17.347875 23.634594 L 17.492406 23.974438 L 17.636937 24.322094 L 18.359594 26.079906 L 18.648656 26.767406 L 18.793187 27.099438 L 18.937719 27.423656 L 19.08225 27.740063 L 19.226781 28.04475 L 19.371312 28.333813 L 19.515844 28.615063 L 19.656469 28.884594 L 19.801 29.1385 L 19.945531 29.380688 L 20.090062 29.60725 L 20.234594 29.822094 L 20.379125 30.021313 L 20.523656 30.212719 L 20.668187 30.3885 L 20.812719 30.552563 L 20.95725 30.704906 L 21.101781 30.845531 L 21.246312 30.978344 L 21.390844 31.099438 L 21.535375 31.208813 L 21.679906 31.314281 L 21.820531 31.408031 L 21.965062 31.493969 L 22.109594 31.576 L 22.254125 31.650219 L 22.398656 31.716625 L 22.687719 31.833813 L 22.83225 31.884594 L 22.976781 31.931469 L 23.121312 31.974438 L 23.265844 32.0135 L 23.410375 32.048656 L 23.699437 32.111156 L 23.843969 32.1385 L 23.9885 32.161938 L 24.129125 32.181469 L 24.273656 32.204906 L 24.418187 32.220531 L 24.562719 32.240063 L 24.70725 32.251781 L 24.851781 32.267406 L 25.285375 32.302563 L 26.008031 32.341625 L 26.152562 32.345531 L 26.293187 32.349438 L 26.437719 32.35725 L 26.871312 32.368969 L 27.015844 32.368969 L 27.304906 32.376781 L 27.449437 32.376781 L 27.7385 32.384594 L 28.027562 32.384594 L 28.172094 32.3885 L 28.461156 32.3885 L 28.601781 32.392406 L 28.746312 32.392406 " transform="matrix(1, 0, 0, -1, 0.199, 36.201)"/>
</g>
<g clip-path="url(#clip-3)">
<path fill="none" stroke-width="0.3985" stroke-linecap="butt" stroke-linejoin="miter" stroke="rgb(0%, 0%, 0%)" stroke-opacity="1" stroke-miterlimit="10" d="M 36.000219 18.001781 C 36.000219 27.943188 27.941625 36.001781 18.000219 36.001781 C 8.058813 36.001781 0.00021875 27.943188 0.00021875 18.001781 C 0.00021875 8.060375 8.058813 0.00178125 18.000219 0.00178125 C 27.941625 0.00178125 36.000219 8.060375 36.000219 18.001781 Z M 36.000219 18.001781 " transform="matrix(1, 0, 0, -1, 0.199, 36.201)"/>
</g>
</svg>
