<?xml version="1.0" encoding="UTF-8"?>
<svg xmlns="http://www.w3.org/2000/svg" xmlns:xlink="http://www.w3.org/1999/xlink" width="36.398" height="36.4" viewBox="0 0 36.398 36.4">
<defs>
<clipPath id="clip-0">
<path clip-rule="nonzero" d="M 33 16 L 36.398438 16 L 36.398438 20 L 33 20 Z M 33 16 "/>
</clipPath>
<clipPath id="clip-1">
<path clip-rule="nonzero" d="M 18 1 L 19 1 L 19 36.398438 L 18 36.398438 Z M 18 1 "/>
</clipPath>
<clipPath id="clip-2">
<path clip-rule="nonzero" d="M 1 0.199219 L 35 0.199219 L 35 36.199219 L 1 36.199219 Z M 1 0.199219 "/>
</clipPath>
<clipPath id="clip-3">
<path clip-rule="nonzero" d="M 0 0 L 36.398438 0 L 36.398438 36.398438 L 0 36.398438 Z M 0 0 "/>
</clipPath>
</defs>
<path fill="none" stroke-width="0.3985" stroke-linecap="butt" stroke-linejoin="miter" stroke="rgb(0%, 0%, 0%)" stroke-opacity="1" stroke-miterlimit="10" d="M 0.00021875 18.001781 L 34.004125 18.001781 " transform="matrix(1, 0, 0, -1, 0.199, 36.201)"/>
<g clip-path="url(#clip-0)">
<path fill-rule="nonzero" fill="rgb(0%, 0%, 0%)" fill-opacity="1" d="M 36.199219 18.199219 L 33.007812 16.605469 L 34.203125 18.199219 L 33.007812 19.792969 "/>
</g>
<g clip-path="url(#clip-1)">
<path fill="none" stroke-width="0.3985" stroke-linecap="butt" stroke-linejoin="miter" stroke="rgb(0%, 0%, 0%)" stroke-opacity="1" stroke-miterlimit="10" d="M 18.000219 0.00178125 L 18.000219 34.009594 " transform="matrix(1, 0, 0, -1, 0.199, 36.201)"/>
</g>
<path fill-rule="nonzero" fill="rgb(0%, 0%, 0%)" fill-opacity="1" d="M 18.199219 0.199219 L 16.605469 3.386719 L 18.199219 2.191406 L 19.792969 3.386719 "/>
<g clip-path="url(#clip-2)">
<path fill="none" stroke-width="0.3985" stroke-linecap="butt" stroke-linejoin="miter" stroke="rgb(100%, 0%, 0%)" stroke-opacity="1" stroke-miterlimit="10" d="M 7.250219 3.630688 L 7.39475 3.634594 L 7.539281 3.642406 L 7.972875 3.677563 L 8.117406 3.693188 L 8.261938 3.712719 L 8.402563 3.73225 L 8.547094 3.755688 L 8.836156 3.818188 L 8.980688 3.85725 L 9.125219 3.904125 L 9.26975 3.954906 L 9.414281 4.0135 L 9.558813 4.079906 L 9.703344 4.154125 L 9.847875 4.240063 L 9.992406 4.337719 L 10.136938 4.443188 L 10.281469 4.564281 L 10.426 4.697094 L 10.566625 4.845531 L 10.711156 5.009594 L 10.855688 5.193188 L 11.000219 5.392406 L 11.14475 5.60725 L 11.289281 5.841625 L 11.433813 6.099438 L 11.578344 6.372875 L 11.722875 6.66975 L 11.867406 6.98225 L 12.011938 7.322094 L 12.156469 7.677563 L 12.301 8.056469 L 12.445531 8.451 L 12.590063 8.865063 L 12.734594 9.298656 L 12.875219 9.743969 L 13.01975 10.208813 L 13.164281 10.681469 L 13.308813 11.161938 L 13.453344 11.650219 L 13.742406 12.642406 L 13.886938 13.134594 L 14.031469 13.622875 L 14.176 14.099438 L 14.320531 14.568188 L 14.465063 15.017406 L 14.609594 15.447094 L 14.754125 15.85725 L 14.898656 16.236156 L 15.039281 16.587719 L 15.183813 16.904125 L 15.328344 17.189281 L 15.472875 17.431469 L 15.617406 17.634594 L 15.761938 17.790844 L 15.906469 17.908031 L 16.051 17.978344 L 16.195531 18.001781 L 19.801 18.001781 L 19.945531 18.021313 L 20.090062 18.091625 L 20.234594 18.208813 L 20.379125 18.368969 L 20.523656 18.572094 L 20.668187 18.814281 L 20.812719 19.095531 L 20.95725 19.411938 L 21.101781 19.7635 L 21.246312 20.146313 L 21.390844 20.552563 L 21.535375 20.98225 L 21.679906 21.431469 L 21.820531 21.900219 L 21.965062 22.380688 L 22.109594 22.865063 L 22.254125 23.35725 L 22.543187 24.349438 L 22.687719 24.837719 L 22.83225 25.322094 L 22.976781 25.79475 L 23.121312 26.255688 L 23.265844 26.701 L 23.410375 27.134594 L 23.554906 27.548656 L 23.699437 27.947094 L 23.843969 28.322094 L 23.9885 28.681469 L 24.129125 29.017406 L 24.273656 29.333813 L 24.418187 29.630688 L 24.562719 29.904125 L 24.70725 30.158031 L 24.851781 30.396313 L 24.996312 30.611156 L 25.140844 30.810375 L 25.285375 30.990063 L 25.429906 31.154125 L 25.574437 31.302563 L 25.718969 31.439281 L 25.8635 31.556469 L 26.008031 31.665844 L 26.152562 31.7635 L 26.293187 31.845531 L 26.437719 31.923656 L 26.58225 31.990063 L 26.726781 32.048656 L 26.871312 32.099438 L 27.015844 32.142406 L 27.160375 32.181469 L 27.304906 32.216625 L 27.593969 32.271313 L 27.883031 32.310375 L 28.027562 32.326 L 28.316625 32.349438 L 28.461156 32.35725 L 28.601781 32.365063 L 28.746312 32.372875 " transform="matrix(1, 0, 0, -1, 0.199, 36.201)"/>
</g>
<g clip-path="url(#clip-3)">
<path fill="none" stroke-width="0.3985" stroke-linecap="butt" stroke-linejoin="miter" stroke="rgb(0%, 0%, 0%)" stroke-opacity="1" stroke-miterlimit="10" d="M 36.000219 18.001781 C 36.000219 27.943188 27.941625 36.001781 18.000219 36.001781 C 8.058813 36.001781 0.00021875 27.943188 0.00021875 18.001781 C 0.00021875 8.060375 8.058813 0.00178125 18.000219 0.00178125 C 27.941625 0.00178125 36.000219 8.060375 36.000219 18.001781 Z M 36.000219 18.001781 " transform="matrix(1, 0, 0, -1, 0.199, 36.201)"/>
</g>
</svg>
